<svg version="1.1" width="140" height="141.333" viewBox="0 0 105 106" xmlns="http://www.w3.org/2000/svg" xmlns:xlink="http://www.w3.org/1999/xlink" overflow="hidden"><g stroke="none" fill="#000000" transform="matrix(0.1,0,0,-0.1,0,106)"><path d=" M 185 850 C 86 784 3 725 1 719 C -1 712 40 555 91 368 C 184 32 185 29 210 33 C 224 35 314 89 411 153 C 616 288 601 254 545 462 C 525 534 511 594 512 595 C 536 613 704 722 715 726 C 724 730 738 723 748 710 L 767 687 L 805 756 C 826 794 850 836 859 849 L 874 873 L 796 866 C 752 862 704 856 688 853 C 660 847 660 847 676 822 C 685 808 689 795 684 793 C 679 791 635 763 585 730 C 536 697 493 674 489 678 C 486 682 468 743 450 814 C 424 913 412 944 398 948 C 388 950 380 956 380 961 C 380 966 377 970 373 970 C 368 970 284 916 185 850 Z M 397 745 C 415 679 426 623 421 620 C 417 617 383 595 347 571 C 310 547 280 525 280 521 C 280 518 289 504 299 491 L 318 466 L 381 508 C 425 536 447 546 451 537 C 461 517 513 310 509 306 C 507 304 444 262 369 212 L 233 122 L 156 398 C 114 550 80 680 80 685 C 80 698 342 870 354 867 C 360 865 378 810 397 745 Z" stroke="#000080" stroke-width="1" stroke-linecap="butt" stroke-opacity="1" fill="#000080" fill-opacity="1"/></g></svg>