                                                                        S      1
,,,11HCubo Furado,22HAutodesk Inventor 2017,7Hunknown,32,38,7,99,15,,1.,G      1
2,2HMM,1,0.08,15H20170310.001908,0.01,10000.,5Hwilli,,11,0,15H16010101.0G      2
00000;                                                                  G      3
     186       1                                                00000000D      1
     186            -123       1       0                               0D      2
     514       2                                                00010000D      3
     514                       1       1                               0D      4
     510       3                                                00010000D      5
     510            -123       1       1                               0D      6
     510       4                                                00010000D      7
     510            -123       1       1                               0D      8
     510       5                                                00010000D      9
     510            -123       1       1                               0D     10
     510       6                                                00010000D     11
     510            -123       1       1                               0D     12
     510       7                                                00010000D     13
     510            -123       1       1                               0D     14
     510       8                                                00010000D     15
     510            -123       1       1                               0D     16
     510       9                                                00010000D     17
     510            -123       1       1                               0D     18
     510      10                                                00010000D     19
     510            -123       1       1                               0D     20
     510      11                                                00010000D     21
     510            -123       1       1                               0D     22
     510      12                                                00010000D     23
     510            -123       1       1                               0D     24
     508      13                                                00010000D     25
     508                       1       1                               0D     26
     508      14                                                00010000D     27
     508                       1       1                               0D     28
     508      15                                                00010000D     29
     508                       1       1                               0D     30
     508      16                                                00010000D     31
     508                       1       1                               0D     32
     508      17                                                00010000D     33
     508                       1       1                               0D     34
     508      18                                                00010000D     35
     508                       1       1                               0D     36
     508      19                                                00010000D     37
     508                       1       1                               0D     38
     508      20                                                00010000D     39
     508                       1       1                               0D     40
     508      21                                                00010000D     41
     508                       1       1                               0D     42
     508      22                                                00010000D     43
     508                       1       1                               0D     44
     508      23                                                00010000D     45
     508                       1       1                               0D     46
     508      24                                                00010000D     47
     508                       1       1                               0D     48
     126      25                                                00010000D     49
     126       0               2       0                               0D     50
     126      27                                                00010000D     51
     126       0               2       0                               0D     52
     126      29                                                00010000D     53
     126       0               2       0                               0D     54
     126      31                                                00010000D     55
     126       0               2       0                               0D     56
     126      33                                                00010000D     57
     126       0               2       0                               0D     58
     126      35                                                00010000D     59
     126       0               2       0                               0D     60
     126      37                                                00010000D     61
     126       0               2       0                               0D     62
     126      39                                                00010000D     63
     126       0               2       0                               0D     64
     126      41                                                00010000D     65
     126       0               2       0                               0D     66
     126      43                                                00010000D     67
     126       0               2       0                               0D     68
     126      45                                                00010000D     69
     126       0               2       0                               0D     70
     126      47                                                00010000D     71
     126       0               2       0                               0D     72
     126      49                                                00010000D     73
     126       0               2       0                               0D     74
     126      51                                                00010000D     75
     126       0               2       0                               0D     76
     126      53                                                00010000D     77
     126       0               2       0                               0D     78
     126      55                                                00010000D     79
     126       0               2       0                               0D     80
     126      57                                                00010000D     81
     126       0               2       0                               0D     82
     126      59                                                00010000D     83
     126       0               2       0                               0D     84
     126      61                                                00010000D     85
     126       0               2       0                               0D     86
     126      63                                                00010000D     87
     126       0               2       0                               0D     88
     126      65                                                00010000D     89
     126       0               2       0                               0D     90
     126      67                                                00010000D     91
     126       0               2       0                               0D     92
     126      69                                                00010000D     93
     126       0               2       0                               0D     94
     126      71                                                00010000D     95
     126       0               2       0                               0D     96
     128      73                                                00010000D     97
     128       0    -123       4       0                               0D     98
     128      77                                                00010000D     99
     128       0    -123       4       0                               0D    100
     128      81                                                00010000D    101
     128       0    -123       4       0                               0D    102
     128      85                                                00010000D    103
     128       0    -123       4       0                               0D    104
     128      89                                                00010000D    105
     128       0    -123       3       0                               0D    106
     128      92                                                00010000D    107
     128       0    -123       3       0                               0D    108
     128      95                                                00010000D    109
     128       0    -123       3       0                               0D    110
     128      98                                                00010000D    111
     128       0    -123       3       0                               0D    112
     128     101                                                00010000D    113
     128       0    -123       3       0                               0D    114
     128     104                                                00010000D    115
     128       0    -123       3       0                               0D    116
     502     107                                                00010000D    117
     502                       4       1                               0D    118
     504     111                                                00010001D    119
     504                       7       1                               0D    120
     406     118                                                00000000D    121
     406                       1      15                               0D    122
     314     119                                                00000200D    123
     314                       1       0                               0D    124
186,3,1,0,0,1,121;                                                     1P      1
514,10,5,1,7,1,9,1,11,1,13,1,15,1,17,1,19,1,21,1,23,1;                 3P      2
510,97,1,1,25;                                                         5P      3
510,99,1,1,27;                                                         7P      4
510,101,1,1,29;                                                        9P      5
510,103,1,1,31;                                                       11P      6
510,105,1,1,33;                                                       13P      7
510,107,1,1,35;                                                       15P      8
510,109,1,1,37;                                                       17P      9
510,111,1,1,39;                                                       19P     10
510,113,2,1,41,43;                                                    21P     11
510,115,2,1,45,47;                                                    23P     12
508,4,0,119,1,0,0,0,119,2,1,0,0,119,3,0,0,0,119,4,0,0;                25P     13
508,4,0,119,5,0,0,0,119,6,1,0,0,119,7,0,0,0,119,2,0,0;                27P     14
508,4,0,119,8,0,0,0,119,9,1,0,0,119,10,0,0,0,119,6,0,0;               29P     15
508,4,0,119,11,0,0,0,119,4,1,0,0,119,12,0,0,0,119,9,0,0;              31P     16
508,4,0,119,13,0,0,0,119,14,1,0,0,119,15,0,0,0,119,16,0,0;            33P     17
508,4,0,119,17,0,0,0,119,16,1,0,0,119,18,0,0,0,119,19,0,0;            35P     18
508,4,0,119,20,0,0,0,119,19,1,0,0,119,21,0,0,0,119,22,0,0;            37P     19
508,4,0,119,23,0,0,0,119,22,1,0,0,119,24,0,0,0,119,14,0,0;            39P     20
508,4,0,119,23,1,0,0,119,13,1,0,0,119,17,1,0,0,119,20,1,0;            41P     21
508,4,0,119,3,1,0,0,119,7,1,0,0,119,10,1,0,0,119,12,1,0;              43P     22
508,4,0,119,24,1,0,0,119,21,1,0,0,119,18,1,0,0,119,15,1,0;            45P     23
508,4,0,119,1,1,0,0,119,11,1,0,0,119,8,1,0,0,119,5,1,0;               47P     24
126,1,1,0,0,1,0,-0.125,-0.125,0.375,0.375,1.,1.,-2.5,-2.5,10.,        49P     25
-2.5,2.5,10.,-0.125,0.375,0.,0.,0.;                                   49P     26
126,1,1,0,0,1,0,0.,0.,1.,1.,1.,1.,-2.5,-2.5,10.,-2.5,-2.5,0.,0.,      51P     27
1.,0.,0.,0.;                                                          51P     28
126,1,1,0,0,1,0,-0.375,-0.375,0.125,0.125,1.,1.,-2.5,2.5,0.,          53P     29
-2.5,-2.5,0.,-0.375,0.125,0.,0.,0.;                                   53P     30
126,1,1,0,0,1,0,0.,0.,1.,1.,1.,1.,-2.5,2.5,10.,-2.5,2.5,0.,0.,        55P     31
1.,0.,0.,0.;                                                          55P     32
126,1,1,0,0,1,0,-0.125,-0.125,0.375,0.375,1.,1.,2.5,-2.5,10.,         57P     33
-2.5,-2.5,10.,-0.125,0.375,0.,0.,0.;                                  57P     34
126,1,1,0,0,1,0,0.,0.,1.,1.,1.,1.,2.5,-2.5,10.,2.5,-2.5,0.,0.,        59P     35
1.,0.,0.,0.;                                                          59P     36
126,1,1,0,0,1,0,-0.375,-0.375,0.125,0.125,1.,1.,-2.5,-2.5,0.,         61P     37
2.5,-2.5,0.,-0.375,0.125,0.,0.,0.;                                    61P     38
126,1,1,0,0,1,0,-0.125,-0.125,0.375,0.375,1.,1.,2.5,2.5,10.,2.5,      63P     39
-2.5,10.,-0.125,0.375,0.,0.,0.;                                       63P     40
126,1,1,0,0,1,0,0.,0.,1.,1.,1.,1.,2.5,2.5,10.,2.5,2.5,0.,0.,1.,       65P     41
0.,0.,0.;                                                             65P     42
126,1,1,0,0,1,0,-0.375,-0.375,0.125,0.125,1.,1.,2.5,-2.5,0.,2.5,      67P     43
2.5,0.,-0.375,0.125,0.,0.,0.;                                         67P     44
126,1,1,0,0,1,0,-0.125,-0.125,0.375,0.375,1.,1.,-2.5,2.5,10.,         69P     45
2.5,2.5,10.,-0.125,0.375,0.,0.,0.;                                    69P     46
126,1,1,0,0,1,0,-0.375,-0.375,0.125,0.125,1.,1.,2.5,2.5,0.,-2.5,      71P     47
2.5,0.,-0.375,0.125,0.,0.,0.;                                         71P     48
126,1,1,0,0,1,0,0.,0.,1.,1.,1.,1.,5.,5.,0.,5.,-5.,0.,0.,1.,0.,        73P     49
0.,0.;                                                                73P     50
126,1,1,0,0,1,0,0.,0.,1.,1.,1.,1.,5.,5.,0.,5.,5.,10.,0.,1.,0.,        75P     51
0.,0.;                                                                75P     52
126,1,1,0,0,1,0,-1.,-1.,0.,0.,1.,1.,5.,-5.,10.,5.,5.,10.,-1.,0.,      77P     53
0.,0.,0.;                                                             77P     54
126,1,1,0,0,1,0,0.,0.,1.,1.,1.,1.,5.,-5.,0.,5.,-5.,10.,0.,1.,0.,      79P     55
0.,0.;                                                                79P     56
126,1,1,0,0,1,0,0.,0.,1.,1.,1.,1.,5.,-5.,0.,-5.,-5.,0.,0.,1.,0.,      81P     57
0.,0.;                                                                81P     58
126,1,1,0,0,1,0,-1.,-1.,0.,0.,1.,1.,-5.,-5.,10.,5.,-5.,10.,-1.,       83P     59
0.,0.,0.,0.;                                                          83P     60
126,1,1,0,0,1,0,0.,0.,1.,1.,1.,1.,-5.,-5.,0.,-5.,-5.,10.,0.,1.,       85P     61
0.,0.,0.;                                                             85P     62
126,1,1,0,0,1,0,0.,0.,1.,1.,1.,1.,-5.,-5.,0.,-5.,5.,0.,0.,1.,0.,      87P     63
0.,0.;                                                                87P     64
126,1,1,0,0,1,0,-1.,-1.,0.,0.,1.,1.,-5.,5.,10.,-5.,-5.,10.,-1.,       89P     65
0.,0.,0.,0.;                                                          89P     66
126,1,1,0,0,1,0,0.,0.,1.,1.,1.,1.,-5.,5.,0.,-5.,5.,10.,0.,1.,0.,      91P     67
0.,0.;                                                                91P     68
126,1,1,0,0,1,0,0.,0.,1.,1.,1.,1.,-5.,5.,0.,5.,5.,0.,0.,1.,0.,        93P     69
0.,0.;                                                                93P     70
126,1,1,0,0,1,0,-1.,-1.,0.,0.,1.,1.,5.,5.,10.,-5.,5.,10.,-1.,0.,      95P     71
0.,0.,0.;                                                             95P     72
128,1,1,1,1,0,0,1,0,0,-0.001,-0.001,0.501,0.501,-0.001,-0.001,        97P     73
1.001,1.001,1.,1.,1.,1.,-2.5,2.51,10.01,-2.5,-2.51,10.01,-2.5,        97P     74
2.51,-0.0099999999999989,-2.5,-2.51,-0.0099999999999989,-0.001,       97P     75
0.501,-0.001,1.001;                                                   97P     76
128,1,1,1,1,0,0,1,0,0,-0.001,-0.001,0.501,0.501,-0.001,-0.001,        99P     77
1.001,1.001,1.,1.,1.,1.,-2.51,-2.5,10.01,2.51,-2.5,10.01,-2.51,       99P     78
-2.5,-0.0099999999999989,2.51,-2.5,-0.0099999999999989,-0.001,        99P     79
0.501,-0.001,1.001;                                                   99P     80
128,1,1,1,1,0,0,1,0,0,-0.001,-0.001,0.501,0.501,-0.001,-0.001,       101P     81
1.001,1.001,1.,1.,1.,1.,2.5,-2.51,10.01,2.5,2.51,10.01,2.5,          101P     82
-2.51,-0.0099999999999989,2.5,2.51,-0.0099999999999989,-0.001,       101P     83
0.501,-0.001,1.001;                                                  101P     84
128,1,1,1,1,0,0,1,0,0,-0.001,-0.001,0.501,0.501,-0.001,-0.001,       103P     85
1.001,1.001,1.,1.,1.,1.,2.51,2.5,10.01,-2.51,2.5,10.01,2.51,2.5,     103P     86
-0.0099999999999989,-2.51,2.5,-0.0099999999999989,-0.001,0.501,      103P     87
-0.001,1.001;                                                        103P     88
128,1,1,1,1,0,0,1,0,0,-0.001,-0.001,1.001,1.001,-0.001,-0.001,       105P     89
1.001,1.001,1.,1.,1.,1.,5.,-5.01,-0.01,5.,5.01,-0.01,5.,-5.01,       105P     90
10.01,5.,5.01,10.01,-0.001,1.001,-0.001,1.001;                       105P     91
128,1,1,1,1,0,0,1,0,0,-0.001,-0.001,1.001,1.001,-0.001,-0.001,       107P     92
1.001,1.001,1.,1.,1.,1.,-5.01,-5.,-0.01,5.01,-5.,-0.01,-5.01,        107P     93
-5.,10.01,5.01,-5.,10.01,-0.001,1.001,-0.001,1.001;                  107P     94
128,1,1,1,1,0,0,1,0,0,-0.001,-0.001,1.001,1.001,-0.001,-0.001,       109P     95
1.001,1.001,1.,1.,1.,1.,-5.,5.01,-0.01,-5.,-5.01,-0.01,-5.,5.01,     109P     96
10.01,-5.,-5.01,10.01,-0.001,1.001,-0.001,1.001;                     109P     97
128,1,1,1,1,0,0,1,0,0,-0.001,-0.001,1.001,1.001,-0.001,-0.001,       111P     98
1.001,1.001,1.,1.,1.,1.,5.01,5.,-0.01,-5.01,5.,-0.01,5.01,5.,        111P     99
10.01,-5.01,5.,10.01,-0.001,1.001,-0.001,1.001;                      111P    100
128,1,1,1,1,0,0,1,0,0,-0.501,-0.501,0.501,0.501,-0.501,-0.501,       113P    101
0.501,0.501,1.,1.,1.,1.,5.01,-5.01,0.,-5.01,-5.01,0.,5.01,5.01,      113P    102
0.,-5.01,5.01,0.,-0.501,0.501,-0.501,0.501;                          113P    103
128,1,1,1,1,0,0,1,0,0,-0.501,-0.501,0.501,0.501,-0.501,-0.501,       115P    104
0.501,0.501,1.,1.,1.,1.,-5.01,-5.01,10.,5.01,-5.01,10.,-5.01,        115P    105
5.01,10.,5.01,5.01,10.,-0.501,0.501,-0.501,0.501;                    115P    106
502,16,-2.5,-2.5,10.,-2.5,2.5,10.,-2.5,-2.5,0.,-2.5,2.5,0.,2.5,      117P    107
-2.5,10.,2.5,-2.5,0.,2.5,2.5,10.,2.5,2.5,0.,5.,5.,0.,5.,-5.,0.,      117P    108
5.,5.,10.,5.,-5.,10.,-5.,-5.,0.,-5.,-5.,10.,-5.,5.,0.,-5.,5.,        117P    109
10.;                                                                 117P    110
504,24,49,117,1,117,2,51,117,1,117,3,53,117,4,117,3,55,117,2,        119P    111
117,4,57,117,5,117,1,59,117,5,117,6,61,117,3,117,6,63,117,7,117,     119P    112
5,65,117,7,117,8,67,117,6,117,8,69,117,2,117,7,71,117,8,117,4,       119P    113
73,117,9,117,10,75,117,9,117,11,77,117,12,117,11,79,117,10,117,      119P    114
12,81,117,10,117,13,83,117,14,117,12,85,117,13,117,14,87,117,13,     119P    115
117,15,89,117,16,117,14,91,117,15,117,16,93,117,15,117,9,95,117,     119P    116
11,117,16;                                                           119P    117
406,1,8HSólido1;                                                    121P    118
314,74.9019607843137,74.9019607843137,74.9019607843137,;             123P    119
S      1G      3D    124P    119                                        T      1
