                                                                        S      1
,,,14HArredondamento,22HAutodesk Inventor 2017,7Hunknown,32,38,7,99,15,,G      1
1.,2,2HMM,1,0.08,15H20170226.151819,0.01,10000.,5Hwilli,,11,0,15H1601010G      2
1.000000;                                                               G      3
     186       1                                                00000000D      1
     186            -137       1       0                               0D      2
     514       2                                                00010000D      3
     514                       1       1                               0D      4
     510       3                                                00010000D      5
     510            -137       1       1                               0D      6
     510       4                                                00010000D      7
     510            -137       1       1                               0D      8
     510       5                                                00010000D      9
     510            -137       1       1                               0D     10
     510       6                                                00010000D     11
     510            -137       1       1                               0D     12
     510       7                                                00010000D     13
     510            -137       1       1                               0D     14
     510       8                                                00010000D     15
     510            -137       1       1                               0D     16
     510       9                                                00010000D     17
     510            -137       1       1                               0D     18
     510      10                                                00010000D     19
     510            -137       1       1                               0D     20
     510      11                                                00010000D     21
     510            -137       1       1                               0D     22
     510      12                                                00010000D     23
     510            -137       1       1                               0D     24
     510      13                                                00010000D     25
     510            -137       1       1                               0D     26
     510      14                                                00010000D     27
     510            -137       1       1                               0D     28
     508      15                                                00010000D     29
     508                       1       1                               0D     30
     508      16                                                00010000D     31
     508                       1       1                               0D     32
     508      17                                                00010000D     33
     508                       1       1                               0D     34
     508      18                                                00010000D     35
     508                       1       1                               0D     36
     508      19                                                00010000D     37
     508                       2       1                               0D     38
     508      21                                                00010000D     39
     508                       2       1                               0D     40
     508      23                                                00010000D     41
     508                       1       1                               0D     42
     508      24                                                00010000D     43
     508                       1       1                               0D     44
     508      25                                                00010000D     45
     508                       2       1                               0D     46
     508      27                                                00010000D     47
     508                       2       1                               0D     48
     508      29                                                00010000D     49
     508                       1       1                               0D     50
     508      30                                                00010000D     51
     508                       1       1                               0D     52
     126      31                                                00010000D     53
     126       0               4       0                               0D     54
     126      35                                                00010000D     55
     126       0               2       0                               0D     56
     126      37                                                00010000D     57
     126       0               3       0                               0D     58
     126      40                                                00010000D     59
     126       0               2       0                               0D     60
     126      42                                                00010000D     61
     126       0               4       0                               0D     62
     126      46                                                00010000D     63
     126       0               2       0                               0D     64
     126      48                                                00010000D     65
     126       0               3       0                               0D     66
     126      51                                                00010000D     67
     126       0               2       0                               0D     68
     126      53                                                00010000D     69
     126       0               4       0                               0D     70
     126      57                                                00010000D     71
     126       0               2       0                               0D     72
     126      59                                                00010000D     73
     126       0               2       0                               0D     74
     126      61                                                00010000D     75
     126       0               2       0                               0D     76
     126      63                                                00010000D     77
     126       0               2       0                               0D     78
     126      65                                                00010000D     79
     126       0               2       0                               0D     80
     126      67                                                00010000D     81
     126       0               2       0                               0D     82
     126      69                                                00010000D     83
     126       0               2       0                               0D     84
     126      71                                                00010000D     85
     126       0               2       0                               0D     86
     126      73                                                00010000D     87
     126       0               2       0                               0D     88
     126      75                                                00010000D     89
     126       0               2       0                               0D     90
     126      77                                                00010000D     91
     126       0               4       0                               0D     92
     126      81                                                00010000D     93
     126       0               2       0                               0D     94
     126      83                                                00010000D     95
     126       0               2       0                               0D     96
     126      85                                                00010000D     97
     126       0               2       0                               0D     98
     126      87                                                00010000D     99
     126       0               2       0                               0D    100
     126      89                                                00010000D    101
     126       0               2       0                               0D    102
     126      91                                                00010000D    103
     126       0               2       0                               0D    104
     126      93                                                00010000D    105
     126       0               2       0                               0D    106
     128      95                                                00010000D    107
     128       0    -137       7       0                               0D    108
     128     102                                                00010000D    109
     128       0    -137       6       0                               0D    110
     128     108                                                00010000D    111
     128       0    -137      35       0                               0D    112
     128     143                                                00010000D    113
     128       0    -137       3       0                               0D    114
     128     146                                                00010000D    115
     128       0    -137       4       0                               0D    116
     128     150                                                00010000D    117
     128       0    -137       3       0                               0D    118
     128     153                                                00010000D    119
     128       0    -137       7       0                               0D    120
     128     160                                                00010000D    121
     128       0    -137       4       0                               0D    122
     128     164                                                00010000D    123
     128       0    -137       3       0                               0D    124
     128     167                                                00010000D    125
     128       0    -137       3       0                               0D    126
     128     170                                                00010000D    127
     128       0    -137       3       0                               0D    128
     128     173                                                00010000D    129
     128       0    -137       3       0                               0D    130
     502     176                                                00010000D    131
     502                       3       1                               0D    132
     504     179                                                00010001D    133
     504                       8       1                               0D    134
     406     187                                                00000000D    135
     406                       1      15                               0D    136
     314     188                                                00000200D    137
     314                       1       0                               0D    138
186,3,1,0,0,1,135;                                                     1P      1
514,12,5,1,7,1,9,1,11,1,13,1,15,1,17,1,19,1,21,1,23,1,25,1,27,1;       3P      2
510,107,1,1,29;                                                        5P      3
510,109,1,1,31;                                                        7P      4
510,111,1,1,33;                                                        9P      5
510,113,1,1,35;                                                       11P      6
510,115,1,1,37;                                                       13P      7
510,117,1,1,39;                                                       15P      8
510,119,1,1,41;                                                       17P      9
510,121,1,1,43;                                                       19P     10
510,123,1,1,45;                                                       21P     11
510,125,1,1,47;                                                       23P     12
510,127,1,1,49;                                                       25P     13
510,129,1,1,51;                                                       27P     14
508,4,0,133,1,1,0,0,133,2,1,0,0,133,3,1,0,0,133,4,1,0;                29P     15
508,4,0,133,5,1,0,0,133,6,1,0,0,133,7,1,0,0,133,8,1,0;                31P     16
508,3,0,133,7,0,0,0,133,9,1,0,0,133,3,0,0;                            33P     17
508,4,0,133,8,0,0,0,133,2,0,0,0,133,10,1,0,0,133,11,0,0;              35P     18
508,5,0,133,1,0,0,0,133,12,0,0,0,133,13,0,0,0,133,14,0,0,0,133,       37P     19
10,0,0;                                                               37P     20
508,6,0,133,4,0,0,0,133,15,0,0,0,133,16,1,0,0,133,17,1,0,0,133,       39P     21
18,1,0,0,133,12,1,0;                                                  39P     22
508,4,0,133,9,0,0,0,133,19,1,0,0,133,20,1,0,0,133,15,1,0;             41P     23
508,4,0,133,21,0,0,0,133,13,1,0,0,133,18,0,0,0,133,22,0,0;            43P     24
508,7,0,133,5,0,0,0,133,11,1,0,0,133,14,1,0,0,133,21,1,0,0,133,       45P     25
23,1,0,0,133,24,1,0,0,133,25,1,0;                                     45P     26
508,5,0,133,20,0,0,0,133,26,1,0,0,133,24,0,0,0,133,27,0,0,0,133,      47P     27
16,0,0;                                                               47P     28
508,4,0,133,22,1,0,0,133,17,0,0,0,133,27,1,0,0,133,23,0,0;            49P     29
508,4,0,133,6,0,0,0,133,25,0,0,0,133,26,0,0,0,133,19,0,0;             51P     30
126,2,2,0,0,0,0,-0.785398163397448,-0.785398163397448,                53P     31
-0.785398163397448,0.785398163397448,0.785398163397448,               53P     32
0.785398163397448,1.,0.707106781186548,1.,-3.,0.,0.,-5.,0.,0.,        53P     33
-5.,0.,2.,-0.785398163397448,0.785398163397448,0.,0.,0.;              53P     34
126,1,1,0,0,1,0,-0.25,-0.25,0.05,0.05,1.,1.,-5.,0.,2.,-5.,3.,2.,      55P     35
-0.25,0.05,0.,0.,0.;                                                  55P     36
126,2,2,0,0,0,0,0.,0.,0.,1.5707963267949,1.5707963267949,             57P     37
1.5707963267949,1.,0.707106781186547,1.,-5.,3.,2.,-5.,3.,             57P     38
5.60832701038688D-16,-3.,3.,0.,0.,1.5707963267949,0.,0.,0.;           57P     39
126,1,1,0,0,1,0,-0.05,-0.05,0.25,0.25,1.,1.,-3.,3.,0.,-3.,0.,0.,      59P     40
-0.05,0.25,0.,0.,0.;                                                  59P     41
126,2,2,0,0,0,0,-0.785398163397448,-0.785398163397448,                61P     42
-0.785398163397448,0.785398163397448,0.785398163397448,               61P     43
0.785398163397448,1.,0.707106781186549,1.,-5.,3.,10.,-5.,5.,10.,      61P     44
-3.,5.,10.,-0.785398163397448,0.785398163397448,0.,0.,0.;             61P     45
126,1,1,0,0,1,0,-1.,-1.,-0.2,-0.2,1.,1.,-3.,5.,10.,-3.,5.,2.,         63P     46
-1.,-0.2,0.,0.,0.;                                                    63P     47
126,2,2,0,0,0,0,0.,0.,0.,1.5707963267949,1.5707963267949,             65P     48
1.5707963267949,1.,0.707106781186547,1.,-3.,5.,2.,-5.,5.,2.,-5.,      65P     49
3.,2.,0.,1.5707963267949,0.,0.,0.;                                    65P     50
126,1,1,0,0,1,0,0.2,0.2,1.,1.,1.,1.,-5.,3.,2.,-5.,3.,10.,0.2,1.,      67P     51
0.,0.,0.;                                                             67P     52
126,2,2,0,0,0,0,-0.785398163397448,-0.785398163397448,                69P     53
-0.785398163397448,0.785398163397448,0.785398163397448,               69P     54
0.785398163397448,1.,0.707106781186547,1.,-3.,5.,2.,-3.,5.,0.,        69P     55
-3.,3.,0.,-0.785398163397448,0.785398163397448,0.,0.,0.;              69P     56
126,1,1,0,0,1,0,-0.3,-0.3,0.5,0.5,1.,1.,-5.,0.,2.,-5.,0.,10.,         71P     57
-0.3,0.5,0.,0.,0.;                                                    71P     58
126,1,1,0,0,1,0,-0.8,-0.8,-0.5,-0.5,1.,1.,-5.,3.,10.,-5.,0.,10.,      73P     59
-0.8,-0.5,0.,0.,0.;                                                   73P     60
126,1,1,0,0,1,0,-0.25,-0.25,0.05,0.05,1.,1.,0.,0.,0.,-3.,0.,0.,       75P     61
-0.25,0.05,0.,0.,0.;                                                  75P     62
126,1,1,0,0,1,0,0.,0.,1.,1.,1.,1.,0.,0.,10.,0.,0.,0.,0.,1.,0.,        77P     63
0.,0.;                                                                77P     64
126,1,1,0,0,1,0,-0.25,-0.25,0.25,0.25,1.,1.,-5.,0.,10.,0.,0.,         79P     65
10.,-0.25,0.25,0.,0.,0.;                                              79P     66
126,1,1,0,0,1,0,-0.25,-0.25,0.55,0.55,1.,1.,5.,3.,0.,-3.,3.,0.,       81P     67
-0.25,0.55,0.,0.,0.;                                                  81P     68
126,1,1,0,0,1,0,0.2,0.2,1.,1.,1.,1.,5.,3.,0.,5.,-5.,0.,0.2,1.,        83P     69
0.,0.,0.;                                                             83P     70
126,1,1,0,0,1,0,0.,0.,0.5,0.5,1.,1.,5.,-5.,0.,0.,-5.,0.,0.,0.5,       85P     71
0.,0.,0.;                                                             85P     72
126,1,1,0,0,1,0,-0.5,-0.5,0.,0.,1.,1.,0.,-5.,0.,0.,0.,0.,-0.5,        87P     73
0.,0.,0.,0.;                                                          87P     74
126,1,1,0,0,1,0,-0.55,-0.55,0.25,0.25,1.,1.,-3.,5.,2.,5.,5.,2.,       89P     75
-0.55,0.25,0.,0.,0.;                                                  89P     76
126,2,2,0,0,0,0,-0.785398163397448,-0.785398163397448,                91P     77
-0.785398163397448,0.785398163397448,0.785398163397448,               91P     78
0.785398163397448,1.,0.707106781186548,1.,5.,5.,2.,5.,5.,0.,5.,       91P     79
3.,0.,-0.785398163397448,0.785398163397448,0.,0.,0.;                  91P     80
126,1,1,0,0,1,0,0.,0.,0.5,0.5,1.,1.,0.,0.,10.,0.,-5.,10.,0.,0.5,      93P     81
0.,0.,0.;                                                             93P     82
126,1,1,0,0,1,0,-0.5,-0.5,0.5,0.5,1.,1.,0.,-5.,10.,0.,-5.,0.,         95P     83
-0.5,0.5,0.,0.,0.;                                                    95P     84
126,1,1,0,0,1,0,-0.5,-0.5,0.,0.,1.,1.,0.,-5.,10.,5.,-5.,10.,          97P     85
-0.5,0.,0.,0.,0.;                                                     97P     86
126,1,1,0,0,1,0,-1.,-1.,0.,0.,1.,1.,5.,-5.,10.,5.,5.,10.,-1.,0.,      99P     87
0.,0.,0.;                                                             99P     88
126,1,1,0,0,1,0,-1.,-1.,-0.2,-0.2,1.,1.,5.,5.,10.,-3.,5.,10.,        101P     89
-1.,-0.2,0.,0.,0.;                                                   101P     90
126,1,1,0,0,1,0,0.2,0.2,1.,1.,1.,1.,5.,5.,2.,5.,5.,10.,0.2,1.,       103P     91
0.,0.,0.;                                                            103P     92
126,1,1,0,0,1,0,0.,0.,1.,1.,1.,1.,5.,-5.,0.,5.,-5.,10.,0.,1.,0.,     105P     93
0.,0.;                                                               105P     94
128,1,2,1,2,0,0,0,0,0,-1.25,-1.25,0.25,0.25,-0.785398163397448,      107P     95
-0.785398163397448,-0.785398163397448,0.785398163397448,             107P     96
0.785398163397448,0.785398163397448,1.,1.,0.707106781186548,         107P     97
0.707106781186548,1.,1.,-3.,3.,1.38777878078145D-16,-3.,0.,          107P     98
1.38777878078145D-16,-5.,3.,2.77555756156289D-16,-5.,0.,             107P     99
2.77555756156289D-16,-5.,3.,2.,-5.,0.,2.,-1.25,0.25,                 107P    100
-0.785398163397448,0.785398163397448;                                107P    101
128,1,2,1,2,0,0,0,0,0,1.,1.,5.,5.,-0.785398163397448,                109P    102
-0.785398163397448,-0.785398163397448,0.785398163397448,             109P    103
0.785398163397448,0.785398163397448,1.,1.,0.707106781186548,         109P    104
0.707106781186548,1.,1.,-3.,5.,10.,-3.,5.,2.,-5.,5.,10.,-5.,5.,      109P    105
2.,-5.,3.,10.,-5.,3.,2.,1.,5.,-0.785398163397448,                    109P    106
0.785398163397448;                                                   109P    107
128,4,4,2,2,0,0,0,0,0,-0.955316618124509,-0.955316618124509,         111P    108
-0.955316618124509,-0.157298032534545,-0.157298032534545,            111P    109
0.64072055305542,0.64072055305542,0.64072055305542,                  111P    110
-0.886077123792614,-0.886077123792614,-0.886077123792614,            111P    111
-1.11022302462516D-16,-1.11022302462516D-16,0.886077123792614,       111P    112
0.886077123792614,0.886077123792614,1.,0.92144634148627,1.,          111P    113
0.92144634148627,1.,0.903453245064092,0.832483687368206,             111P    114
0.903453245064092,0.832483687368206,0.903453245064092,1.,            111P    115
0.92144634148627,1.,0.92144634148627,1.,0.903453245064092,           111P    116
0.832483687368206,0.903453245064092,0.832483687368206,               111P    117
0.903453245064092,1.,0.92144634148627,1.,0.92144634148627,1.,        111P    118
-4.95171358835228,2.60929390172041,1.8046469508602,                  111P    119
-5.13588935442963,3.34531178704376,2.17265589352188,                 111P    120
-4.67529719638673,3.97708927075422,2.48854463537711,                 111P    121
-4.21470503834383,4.60886675446467,2.80443337723234,                 111P    122
-3.38742588672279,4.75497035468912,2.87748517734456,                 111P    123
-4.95171358835228,2.94952367137507,1.12418741155089,                 111P    124
-5.13588935442963,3.79250688190741,1.27826570379458,                 111P    125
-4.67529719638673,4.39625344095371,1.65021629497813,                 111P    126
-4.21470503834383,5.,2.02216688616168,-3.38742588672279,5.,          111P    127
2.38742588672279,-4.4137630884007,2.94952367137507,                  111P    128
0.586236911599304,-4.42881182531753,3.79250688190741,                111P    129
0.571188174682474,-4.0125404507043,4.39625344095371,                 111P    130
0.9874595492957,-3.59626907609108,5.,1.40373092390893,-3.,5.,2.,     111P    131
-3.87581258844912,2.94952367137507,0.048286411647723,                111P    132
-3.72173429620542,3.79250688190741,-0.135889354429628,               111P    133
-3.34978370502187,4.39625344095371,0.324702803613269,                111P    134
-2.97783311383832,5.,0.785294961656167,-2.61257411327721,5.,         111P    135
1.61257411327721,-3.1953530491398,2.60929390172041,                  111P    136
0.0482864116477227,-2.82734410647812,3.34531178704376,               111P    137
-0.135889354429628,-2.51145536462289,3.97708927075422,               111P    138
0.324702803613269,-2.19556662276766,4.60886675446467,                111P    139
0.785294961656167,-2.12251482265544,4.75497035468912,                111P    140
1.61257411327721,-0.955316618124509,0.64072055305542,                111P    141
-0.886077123792614,0.886077123792614;                                111P    142
128,1,1,1,1,0,0,1,0,0,0.199,0.199,0.501,0.501,0.199,0.199,1.001,     113P    143
1.001,1.,1.,1.,1.,-5.,3.01,1.99,-5.,-0.01,1.99,-5.,3.01,10.01,       113P    144
-5.,-0.01,10.01,0.199,0.501,0.199,1.001;                             113P    145
128,1,1,1,1,0,0,1,0,0,-0.001,-0.001,0.501,0.501,-0.001,-0.001,       115P    146
1.001,1.001,1.,1.,1.,1.,0.01,0.,10.01,-5.01,0.,10.01,0.01,0.,        115P    147
-0.0099999999999989,-5.01,0.,-0.0099999999999989,-0.001,0.501,       115P    148
-0.001,1.001;                                                        115P    149
128,1,1,1,1,0,0,1,0,0,-0.301,-0.301,0.501,0.501,-0.501,-0.501,       117P    150
0.301,0.301,1.,1.,1.,1.,5.01,-5.01,0.,-3.01,-5.01,0.,5.01,3.01,      117P    151
0.,-3.01,3.01,0.,-0.301,0.501,-0.501,0.301;                          117P    152
128,1,2,1,2,0,0,0,0,0,-2.75,-2.75,1.25,1.25,-0.785398163397448,      119P    153
-0.785398163397448,-0.785398163397448,0.785398163397448,             119P    154
0.785398163397448,0.785398163397448,1.,1.,0.707106781186548,         119P    155
0.707106781186548,1.,1.,5.,3.,1.38777878078145D-16,-3.,3.,           119P    156
1.38777878078145D-16,5.,5.,2.77555756156289D-16,-3.,5.,              119P    157
2.77555756156289D-16,5.,5.,2.,-3.,5.,2.,-2.75,1.25,                  119P    158
-0.785398163397448,0.785398163397448;                                119P    159
128,1,1,1,1,0,0,1,0,0,-0.001,-0.001,0.501,0.501,-0.001,-0.001,       121P    160
1.001,1.001,1.,1.,1.,1.,0.,-5.01,10.01,0.,0.01,10.01,0.,-5.01,       121P    161
-0.0099999999999989,0.,0.01,-0.0099999999999989,-0.001,0.501,        121P    162
-0.001,1.001;                                                        121P    163
128,1,1,1,1,0,0,1,0,0,-0.501,-0.501,0.501,0.501,-0.501,-0.501,       123P    164
0.501,0.501,1.,1.,1.,1.,-5.01,-5.01,10.,5.01,-5.01,10.,-5.01,        123P    165
5.01,10.,5.01,5.01,10.,-0.501,0.501,-0.501,0.501;                    123P    166
128,1,1,1,1,0,0,1,0,0,-0.001,-0.001,1.001,1.001,-0.001,-0.001,       125P    167
1.001,1.001,1.,1.,1.,1.,5.,-5.01,-0.01,5.,5.01,-0.01,5.,-5.01,       125P    168
10.01,5.,5.01,10.01,-0.001,1.001,-0.001,1.001;                       125P    169
128,1,1,1,1,0,0,1,0,0,0.499,0.499,1.001,1.001,-0.001,-0.001,         127P    170
1.001,1.001,1.,1.,1.,1.,-0.01,-5.,-0.01,5.01,-5.,-0.01,-0.01,        127P    171
-5.,10.01,5.01,-5.,10.01,0.499,1.001,-0.001,1.001;                   127P    172
128,1,1,1,1,0,0,1,0,0,-0.001,-0.001,0.801,0.801,0.199,0.199,         129P    173
1.001,1.001,1.,1.,1.,1.,5.01,5.,1.99,-3.01,5.,1.99,5.01,5.,          129P    174
10.01,-3.01,5.,10.01,-0.001,0.801,0.199,1.001;                       129P    175
502,17,-3.,0.,0.,-5.,0.,2.,-5.,3.,2.,-3.,3.,0.,-5.,3.,10.,-3.,       131P    176
5.,10.,-3.,5.,2.,-5.,0.,10.,0.,0.,0.,0.,0.,10.,5.,3.,0.,5.,-5.,      131P    177
0.,0.,-5.,0.,5.,5.,2.,0.,-5.,10.,5.,-5.,10.,5.,5.,10.;               131P    178
504,27,53,131,1,131,2,55,131,2,131,3,57,131,3,131,4,59,131,4,        133P    179
131,1,61,131,5,131,6,63,131,6,131,7,65,131,7,131,3,67,131,3,131,     133P    180
5,69,131,7,131,4,71,131,2,131,8,73,131,5,131,8,75,131,9,131,1,       133P    181
77,131,10,131,9,79,131,8,131,10,81,131,11,131,4,83,131,11,131,       133P    182
12,85,131,12,131,13,87,131,13,131,9,89,131,7,131,14,91,131,14,       133P    183
131,11,93,131,10,131,15,95,131,15,131,13,97,131,15,131,16,99,        133P    184
131,16,131,17,101,131,17,131,6,103,131,14,131,17,105,131,12,131,     133P    185
16;                                                                  133P    186
406,1,8HSólido1;                                                    135P    187
314,74.9019607843137,74.9019607843137,74.9019607843137,;             137P    188
S      1G      3D    138P    188                                        T      1
