                                                                        S      1
,,,4HCone,22HAutodesk Inventor 2017,7Hunknown,32,38,7,99,15,,1.,2,2HMM, G      1
1,0.08,15H20170605.121425,0.01,10000.,6HHideak,,11,0,15H16010101.000000;G      2
     186       1                                                00000000D      1
     186             -29       1       0                               0D      2
     514       2                                                00010000D      3
     514                       1       1                               0D      4
     510       3                                                00010000D      5
     510             -29       1       1                               0D      6
     510       4                                                00010000D      7
     510             -29       1       1                               0D      8
     508       5                                                00010000D      9
     508                       1       1                               0D     10
     508       6                                                00010000D     11
     508                       1       1                               0D     12
     126       7                                                00010000D     13
     126       0               5       0                               0D     14
     126      12                                                00010000D     15
     126       0               7       0                               0D     16
     126      19                                                00010000D     17
     126       0               4       0                               0D     18
     128      23                                                00010000D     19
     128       0     -29       3       0                               0D     20
     128      26                                                00010000D     21
     128       0     -29      16       0                               0D     22
     502      42                                                00010000D     23
     502                       1       1                               0D     24
     504      43                                                00010001D     25
     504                       1       1                               0D     26
     406      44                                                00000000D     27
     406                       1      15                               0D     28
     314      45                                                00000200D     29
     314                       1       0                               0D     30
186,3,1,0,0,1,27;                                                      1P      1
514,2,5,1,7,1;                                                         3P      2
510,19,1,1,9;                                                          5P      3
510,21,1,1,11;                                                         7P      4
508,2,0,25,1,0,0,0,25,2,0,0;                                           9P      5
508,4,0,25,3,1,0,0,25,2,1,0,0,25,1,1,0,0,25,3,0,0;                    11P      6
126,4,2,0,0,0,0,0.,0.,0.,1.5707963267949,1.5707963267949,             13P      7
3.14159265358979,3.14159265358979,3.14159265358979,1.,                13P      8
0.707106781186548,1.,0.707106781186548,1.,2.5,0.,0.,2.5,0.,-2.5,      13P      9
1.53080849893419D-16,0.,-2.5,-2.5,0.,-2.5,-2.5,0.,                    13P     10
-3.06161699786838D-16,0.,3.14159265358979,0.,0.,0.;                   13P     11
126,4,2,0,0,0,0,3.14159265358979,3.14159265358979,                    15P     12
3.14159265358979,4.71238898038469,4.71238898038469,                   15P     13
6.28318530717959,6.28318530717959,6.28318530717959,1.,                15P     14
0.707106781186548,1.,0.707106781186547,1.,-2.5,0.,                    15P     15
-3.06161699786838D-16,-2.5,0.,2.5,-4.59242549680257D-16,0.,2.5,       15P     16
2.5,0.,2.5,2.5,0.,6.12323399573677D-16,3.14159265358979,              15P     17
6.28318530717959,0.,0.,0.;                                            15P     18
126,1,1,0,0,1,0,-2.23606797749979,-2.23606797749979,                  17P     19
1.64581278675061D-33,1.64581278675061D-33,1.,1.,0.,5.,0.,-2.5,        17P     20
-3.68014926941273D-33,0.,-2.23606797749979,1.64581278675061D-33,      17P     21
0.,0.,0.;                                                             17P     22
128,1,1,1,1,0,0,1,0,0,-0.251,-0.251,0.251,0.251,-0.251,-0.251,        19P     23
0.251,0.251,1.,1.,1.,1.,-2.51,0.,2.51,-2.51,0.,-2.51,2.51,0.,         19P     24
2.51,2.51,0.,-2.51,-0.251,0.251,-0.251,0.251;                         19P     25
128,1,8,1,2,0,1,0,0,1,-1.64581278675061D-33,                          21P     26
-1.64581278675061D-33,2.23606797749979,2.23606797749979,              21P     27
-3.14159265358979,-3.14159265358979,-3.14159265358979,                21P     28
-1.5707963267949,-1.5707963267949,0.,0.,1.5707963267949,              21P     29
1.5707963267949,3.14159265358979,3.14159265358979,                    21P     30
3.14159265358979,1.,1.,0.707106781186548,0.707106781186548,1.,        21P     31
1.,0.707106781186548,0.707106781186548,1.,1.,0.707106781186548,       21P     32
0.707106781186548,1.,1.,0.707106781186548,0.707106781186548,1.,       21P     33
1.,0.,5.,0.,-2.5,-3.68014926941273D-33,0.,0.,5.,0.,-2.5,              21P     34
-3.68014926941273D-33,2.5,0.,5.,0.,0.,-3.68014926941273D-33,2.5,      21P     35
0.,5.,0.,2.5,-3.68014926941273D-33,2.5,0.,5.,0.,2.5,                  21P     36
-3.68014926941273D-33,0.,0.,5.,0.,2.5,-3.68014926941273D-33,          21P     37
-2.5,0.,5.,0.,0.,-3.68014926941273D-33,-2.5,0.,5.,0.,-2.5,            21P     38
-3.68014926941273D-33,-2.5,0.,5.,0.,-2.5,-3.68014926941273D-33,       21P     39
0.,-1.64581278675061D-33,2.23606797749979,-3.14159265358979,          21P     40
3.14159265358979;                                                     21P     41
502,3,2.5,0.,0.,-2.5,-3.68014926941273D-33,0.,0.,5.,0.;               23P     42
504,3,13,23,1,23,2,15,23,2,23,1,17,23,3,23,2;                         25P     43
406,1,8HSólido1;                                                     27P     44
314,74.9019607843137,74.9019607843137,74.9019607843137,;              29P     45
S      1G      2D     30P     45                                        T      1
