                                                                        S      1
,,3HSSD,13Hcube_cylinder,22HAutodesk Inventor 2018,7Hunknown,32,38,7,99,G      1
15,,1.,2,2HMM,1,0.08,15H20190220.091312,0.01,10000.,14HSeu.Nome.Aqui!,, G      2
11,0,15H20190220.120632;                                                G      3
     186       1                                                00000000D      1
     186            -127       1       0                               0D      2
     514       2                                                00010000D      3
     514                       1       1                               0D      4
     510       3                                                00010000D      5
     510            -127       1       1                               0D      6
     510       4                                                00010000D      7
     510            -127       1       1                               0D      8
     510       5                                                00010000D      9
     510            -127       1       1                               0D     10
     510       6                                                00010000D     11
     510            -127       1       1                               0D     12
     510       7                                                00010000D     13
     510            -127       1       1                               0D     14
     510       8                                                00010000D     15
     510            -127       1       1                               0D     16
     510       9                                                00010000D     17
     510            -127       1       1                               0D     18
     510      10                                                00010000D     19
     510            -127       1       1                               0D     20
     510      11                                                00010000D     21
     510            -127       1       1                               0D     22
     510      12                                                00010000D     23
     510            -127       1       1                               0D     24
     508      13                                                00010000D     25
     508                       2       1                               0D     26
     508      15                                                00010000D     27
     508                       1       1                               0D     28
     508      16                                                00010000D     29
     508                       1       1                               0D     30
     508      17                                                00010000D     31
     508                       1       1                               0D     32
     508      18                                                00010000D     33
     508                       2       1                               0D     34
     508      20                                                00010000D     35
     508                       1       1                               0D     36
     508      21                                                00010000D     37
     508                       1       1                               0D     38
     508      22                                                00010000D     39
     508                       2       1                               0D     40
     508      24                                                00010000D     41
     508                       2       1                               0D     42
     508      26                                                00010000D     43
     508                       2       1                               0D     44
     508      28                                                00010000D     45
     508                       1       1                               0D     46
     508      29                                                00010000D     47
     508                       1       1                               0D     48
     508      30                                                00010000D     49
     508                       1       1                               0D     50
     126      31                                                00010000D     51
     126       0               8       0                               0D     52
     126      39                                                00010000D     53
     126       0               8       0                               0D     54
     126      47                                                00010000D     55
     126       0               4       0                               0D     56
     126      51                                                00010000D     57
     126       0               8       0                               0D     58
     126      59                                                00010000D     59
     126       0               8       0                               0D     60
     126      67                                                00010000D     61
     126       0               4       0                               0D     62
     126      71                                                00010000D     63
     126       0               4       0                               0D     64
     126      75                                                00010000D     65
     126       0               4       0                               0D     66
     126      79                                                00010000D     67
     126       0               8       0                               0D     68
     126      87                                                00010000D     69
     126       0               8       0                               0D     70
     126      95                                                00010000D     71
     126       0               4       0                               0D     72
     126      99                                                00010000D     73
     126       0               8       0                               0D     74
     126     107                                                00010000D     75
     126       0               8       0                               0D     76
     126     115                                                00010000D     77
     126       0               3       0                               0D     78
     126     118                                                00010000D     79
     126       0               2       0                               0D     80
     126     120                                                00010000D     81
     126       0               2       0                               0D     82
     126     122                                                00010000D     83
     126       0               3       0                               0D     84
     126     125                                                00010000D     85
     126       0               3       0                               0D     86
     126     128                                                00010000D     87
     126       0               2       0                               0D     88
     126     130                                                00010000D     89
     126       0               2       0                               0D     90
     126     132                                                00010000D     91
     126       0               2       0                               0D     92
     126     134                                                00010000D     93
     126       0               2       0                               0D     94
     126     136                                                00010000D     95
     126       0               2       0                               0D     96
     126     138                                                00010000D     97
     126       0               2       0                               0D     98
     126     140                                                00010000D     99
     126       0               2       0                               0D    100
     128     142                                                00010000D    101
     128       0    -127      25       0                               0D    102
     128     167                                                00010000D    103
     128       0    -127       9       0                               0D    104
     128     176                                                00010000D    105
     128       0    -127      25       0                               0D    106
     128     201                                                00010000D    107
     128       0    -127       8       0                               0D    108
     128     209                                                00010000D    109
     128       0    -127       3       0                               0D    110
     128     212                                                00010000D    111
     128       0    -127       3       0                               0D    112
     128     215                                                00010000D    113
     128       0    -127       3       0                               0D    114
     128     218                                                00010000D    115
     128       0    -127       3       0                               0D    116
     128     221                                                00010000D    117
     128       0    -127       3       0                               0D    118
     128     224                                                00010000D    119
     128       0    -127       3       0                               0D    120
     502     227                                                00010000D    121
     502                       8       1                               0D    122
     504     235                                                00010001D    123
     504                       7       1                               0D    124
     406     242                                                00000000D    125
     406                       1      15                               0D    126
     314     243                                                00000200D    127
     314                       1       0                               0D    128
186,3,1,0,0,1,125;                                                     1P      1
514,10,5,1,7,1,9,1,11,1,13,1,15,1,17,1,19,1,21,1,23,1;                 3P      2
510,101,2,1,25,27;                                                     5P      3
510,103,2,1,29,31;                                                     7P      4
510,105,1,1,33;                                                        9P      5
510,107,2,1,35,37;                                                    11P      6
510,109,1,1,39;                                                       13P      7
510,111,1,1,41;                                                       15P      8
510,113,1,1,43;                                                       17P      9
510,115,1,1,45;                                                       19P     10
510,117,1,1,47;                                                       21P     11
510,119,1,1,49;                                                       23P     12
508,6,0,123,1,0,0,0,123,2,0,0,0,123,3,1,0,0,123,4,1,0,0,123,5,1,      25P     13
0,0,123,3,0,0;                                                        25P     14
508,3,0,123,6,0,0,0,123,7,0,0,0,123,8,0,0;                            27P     15
508,2,0,123,1,1,0,0,123,2,1,0;                                        29P     16
508,2,0,123,9,0,0,0,123,10,0,0;                                       31P     17
508,6,0,123,9,1,0,0,123,11,1,0,0,123,12,0,0,0,123,13,0,0,0,123,       33P     18
11,0,0,0,123,10,1,0;                                                  33P     19
508,2,0,123,5,0,0,0,123,4,0,0;                                        35P     20
508,2,0,123,12,1,0,0,123,13,1,0;                                      37P     21
508,5,0,123,7,1,0,0,123,14,1,0,0,123,15,1,0,0,123,16,1,0,0,123,       39P     22
17,1,0;                                                               39P     23
508,5,0,123,6,1,0,0,123,18,0,0,0,123,19,0,0,0,123,20,1,0,0,123,       41P     24
14,0,0;                                                               41P     25
508,5,0,123,8,1,0,0,123,17,0,0,0,123,21,0,0,0,123,22,0,0,0,123,       43P     26
18,1,0;                                                               43P     27
508,4,0,123,23,0,0,0,123,21,1,0,0,123,16,0,0,0,123,24,0,0;            45P     28
508,4,0,123,25,0,0,0,123,24,1,0,0,123,15,0,0,0,123,20,0,0;            47P     29
508,4,0,123,25,1,0,0,123,19,1,0,0,123,22,1,0,0,123,23,1,0;            49P     30
126,4,2,0,0,0,0,-3.14159265358979,-3.14159265358979,                  51P     31
-3.14159265358979,-1.5707963267949,-1.5707963267949,0.,0.,0.,1.,      51P     32
0.707106781186547,1.,0.707106781186546,1.,-0.216281042446452,         51P     33
7.69908990625984,2.5,-0.216281042446452,7.69908990625984,             51P     34
4.524187515153,1.21503567591138,9.13040662461767,4.524187515153,      51P     35
2.64635239426921,10.5617233429755,4.524187515153,                     51P     36
2.64635239426921,10.5617233429755,2.5,-3.14159265358979,0.,0.,        51P     37
0.,0.;                                                                51P     38
126,4,2,0,0,0,0,0.,0.,0.,1.5707963267949,1.5707963267949,             53P     39
3.14159265358979,3.14159265358979,3.14159265358979,1.,                53P     40
0.707106781186547,1.,0.707106781186548,1.,2.64635239426921,           53P     41
10.5617233429755,2.5,2.64635239426921,10.5617233429755,               53P     42
0.475812484847005,1.21503567591138,9.13040662461767,                  53P     43
0.475812484847005,-0.216281042446452,7.69908990625984,                53P     44
0.475812484847005,-0.216281042446452,7.69908990625984,2.5,0.,         53P     45
3.14159265358979,0.,0.,0.;                                            53P     46
126,1,1,0,0,1,0,-1.88721563446816,-1.88721563446816,                  55P     47
1.88721563446816,1.88721563446816,1.,1.,2.64635239426921,             55P     48
10.5617233429755,2.5,8.04875897179032,5.15931676545439,2.5,           55P     49
-1.88721563446816,1.88721563446816,0.,0.,0.;                          55P     50
126,4,2,0,0,0,0,0.,0.,0.,1.5707963267949,1.5707963267949,             57P     51
3.14159265358979,3.14159265358979,3.14159265358979,1.,                57P     52
0.707106781186548,1.,0.707106781186549,1.,8.04875897179032,           57P     53
5.15931676545439,2.5,8.04875897179032,5.15931676545439,               57P     54
0.475812484847005,6.61744225343249,3.72800004709656,                  57P     55
0.475812484847005,5.18612553507466,2.29668332873873,                  57P     56
0.475812484847005,5.18612553507466,2.29668332873873,2.5,0.,           57P     57
3.14159265358979,0.,0.,0.;                                            57P     58
126,4,2,0,0,0,0,-3.14159265358979,-3.14159265358979,                  59P     59
-3.14159265358979,-1.5707963267949,-1.5707963267949,0.,0.,0.,1.,      59P     60
0.707106781186549,1.,0.707106781186548,1.,5.18612553507466,           59P     61
2.29668332873873,2.5,5.18612553507466,2.29668332873873,               59P     62
4.52418751515299,6.61744225343249,3.72800004709656,                   59P     63
4.52418751515299,8.04875897179032,5.15931676545439,                   59P     64
4.52418751515299,8.04875897179032,5.15931676545439,2.5,               59P     65
-3.14159265358979,0.,0.,0.,0.;                                        59P     66
126,2,2,0,0,0,0,-0.109648324353834,-0.109648324353834,                61P     67
-0.109648324353834,0.,0.,0.,1.,0.998497532006482,1.,2.5,5.,           61P     68
2.27849570279285,2.5,4.98280886381339,2.38891429673506,2.5,           61P     69
4.98280886381339,2.5,-0.109648324353834,0.,0.,0.,0.;                  61P     70
126,2,2,0,0,0,0,0.,0.,0.,0.109648324353834,0.109648324353834,         63P     71
0.109648324353834,1.,0.998497532006482,1.,2.48280886381339,5.,        63P     72
2.5,2.48280886381339,5.,2.38891429673506,2.5,5.,                      63P     73
2.27849570279285,0.,0.109648324353834,0.,0.,0.;                       63P     74
126,1,1,0,0,1,0,-0.00213231637527157,-0.00213231637527157,            65P     75
0.000298877419499425,0.000298877419499425,1.,1.,2.5,                  65P     76
4.98280886381339,2.5,2.48280886381339,5.,2.5,                         65P     77
-0.00213231637527157,0.000298877419499425,0.,0.,0.;                   65P     78
126,4,2,0,0,0,0,-3.14159265358979,-3.14159265358979,                  67P     79
-3.14159265358979,-1.5707963267949,-1.5707963267949,0.,0.,0.,1.,      67P     80
0.707106781186548,1.,0.707106781186548,1.,-0.0981180322319997,        67P     81
7.81725291647429,2.5,-0.0981180322319992,7.81725291647429,            67P     82
4.35707978353688,1.21503567591138,9.13040662461767,                   67P     83
4.35707978353688,2.52818938405476,10.443560332761,                    67P     84
4.35707978353688,2.52818938405476,10.443560332761,2.5,                67P     85
-3.14159265358979,0.,0.,0.,0.;                                        67P     86
126,4,2,0,0,0,0,0.,0.,0.,1.5707963267949,1.5707963267949,             69P     87
3.14159265358979,3.14159265358979,3.14159265358979,1.,                69P     88
0.707106781186548,1.,0.707106781186548,1.,2.52818938405476,           69P     89
10.443560332761,2.5,2.52818938405476,10.443560332761,                 69P     90
0.642920216463115,1.21503567591138,9.13040662461767,                  69P     91
0.642920216463115,-0.0981180322319992,7.81725291647429,               69P     92
0.642920216463115,-0.0981180322319997,7.81725291647429,2.5,0.,        69P     93
3.14159265358979,0.,0.,0.;                                            69P     94
126,1,1,0,0,1,0,-2.05703511478462,-2.05703511478462,                  71P     95
2.05703511478462,2.05703511478462,1.,1.,2.52818938405475,             71P     96
10.443560332761,2.5,7.93059596157586,5.04115375523994,2.5,            71P     97
-2.05703511478462,2.05703511478462,0.,0.,0.;                          71P     98
126,4,2,0,0,0,0,-3.14159265358979,-3.14159265358979,                  73P     99
-3.14159265358979,-1.5707963267949,-1.5707963267949,0.,0.,0.,1.,      73P    100
0.707106781186547,1.,0.707106781186548,1.,5.30428854528912,           73P    101
2.41484633895319,2.5,5.30428854528912,2.41484633895319,               73P    102
4.35707978353688,6.61744225343249,3.72800004709656,                   73P    103
4.35707978353688,7.93059596157586,5.04115375523993,                   73P    104
4.35707978353688,7.93059596157586,5.04115375523993,2.5,               73P    105
-3.14159265358979,0.,0.,0.,0.;                                        73P    106
126,4,2,0,0,0,0,0.,0.,0.,1.5707963267949,1.5707963267949,             75P    107
3.14159265358979,3.14159265358979,3.14159265358979,1.,                75P    108
0.707106781186548,1.,0.707106781186547,1.,7.93059596157586,           75P    109
5.04115375523993,2.5,7.93059596157586,5.04115375523993,               75P    110
0.642920216463123,6.61744225343249,3.72800004709656,                  75P    111
0.642920216463123,5.30428854528912,2.41484633895319,                  75P    112
0.642920216463123,5.30428854528912,2.41484633895319,2.5,0.,           75P    113
3.14159265358979,0.,0.,0.;                                            75P    114
126,1,1,0,0,1,0,-0.477849570279285,-0.477849570279285,0.,0.,1.,       77P    115
1.,2.5,5.,2.27849570279285,2.5,5.,-2.5,-0.477849570279285,0.,0.,      77P    116
0.,0.;                                                                77P    117
126,1,1,0,0,1,0,-0.5,-0.5,0.,0.,1.,1.,2.5,5.,-2.5,-2.5,5.,-2.5,       79P    118
-0.5,0.,0.,0.,0.;                                                     79P    119
126,1,1,0,0,1,0,-0.5,-0.5,0.,0.,1.,1.,-2.5,5.,-2.5,-2.5,5.,2.5,       81P    120
-0.5,0.,0.,0.,0.;                                                     81P    121
126,1,1,0,0,1,0,-0.5,-0.5,-0.00171911361866123,                       83P    122
-0.00171911361866123,1.,1.,-2.5,5.,2.5,2.48280886381339,5.,2.5,       83P    123
-0.5,-0.00171911361866123,0.,0.,0.;                                   83P    124
126,1,1,0,0,1,0,0.,0.,0.498280886381339,0.498280886381339,1.,1.,      85P    125
2.5,0.,2.5,2.5,4.98280886381339,2.5,0.,0.498280886381339,0.,0.,       85P    126
0.;                                                                   85P    127
126,1,1,0,0,1,0,0.,0.,0.5,0.5,1.,1.,2.5,0.,-2.5,2.5,0.,2.5,0.,        87P    128
0.5,0.,0.,0.;                                                         87P    129
126,1,1,0,0,1,0,0.,0.,0.5,0.5,1.,1.,2.5,0.,-2.5,2.5,5.,-2.5,0.,       89P    130
0.5,0.,0.,0.;                                                         89P    131
126,1,1,0,0,1,0,0.,0.,0.5,0.5,1.,1.,-2.5,0.,2.5,-2.5,5.,2.5,0.,       91P    132
0.5,0.,0.,0.;                                                         91P    133
126,1,1,0,0,1,0,0.,0.,0.5,0.5,1.,1.,2.5,0.,2.5,-2.5,0.,2.5,0.,        93P    134
0.5,0.,0.,0.;                                                         93P    135
126,1,1,0,0,1,0,0.,0.,0.5,0.5,1.,1.,-2.5,0.,2.5,-2.5,0.,-2.5,0.,      95P    136
0.5,0.,0.,0.;                                                         95P    137
126,1,1,0,0,1,0,0.,0.,0.5,0.5,1.,1.,-2.5,0.,-2.5,-2.5,5.,-2.5,        97P    138
0.,0.5,0.,0.,0.;                                                      97P    139
126,1,1,0,0,1,0,0.,0.,0.5,0.5,1.,1.,-2.5,0.,-2.5,2.5,0.,-2.5,0.,      99P    140
0.5,0.,0.,0.;                                                         99P    141
128,1,8,1,2,0,1,0,0,1,-1.88721563446816,-1.88721563446816,           101P    142
1.88721563446816,1.88721563446816,-3.14159265358979,                 101P    143
-3.14159265358979,-3.14159265358979,-1.5707963267949,                101P    144
-1.5707963267949,0.,0.,1.5707963267949,1.5707963267949,              101P    145
3.14159265358979,3.14159265358979,3.14159265358979,1.,1.,            101P    146
0.707106781186548,0.707106781186548,1.,1.,0.707106781186548,         101P    147
0.707106781186548,1.,1.,0.707106781186548,0.707106781186548,1.,      101P    148
1.,0.707106781186548,0.707106781186548,1.,1.,2.64635239426921,       101P    149
10.5617233429755,2.5,8.04875897179032,5.15931676545439,2.5,          101P    150
2.64635239426921,10.5617233429755,0.475812484847006,                 101P    151
8.04875897179032,5.15931676545439,0.475812484847006,                 101P    152
1.21503567591138,9.13040662461767,0.475812484847006,                 101P    153
6.61744225343249,3.72800004709656,0.475812484847005,                 101P    154
-0.216281042446452,7.69908990625984,0.475812484847006,               101P    155
5.18612553507466,2.29668332873873,0.475812484847006,                 101P    156
-0.216281042446452,7.69908990625984,2.5,5.18612553507466,            101P    157
2.29668332873873,2.5,-0.216281042446452,7.69908990625984,            101P    158
4.52418751515299,5.18612553507466,2.29668332873873,                  101P    159
4.52418751515299,1.21503567591138,9.13040662461767,                  101P    160
4.52418751515299,6.61744225343249,3.72800004709656,                  101P    161
4.52418751515299,2.64635239426921,10.5617233429755,                  101P    162
4.52418751515299,8.04875897179032,5.15931676545439,                  101P    163
4.52418751515299,2.64635239426921,10.5617233429755,2.5,              101P    164
8.04875897179032,5.15931676545439,2.5,-1.88721563446816,             101P    165
1.88721563446816,-3.14159265358979,3.14159265358979;                 101P    166
128,1,1,1,1,0,0,1,0,0,-0.2034187515153,-0.2034187515153,             103P    167
0.2034187515153,0.2034187515153,-0.017710773161611,                  103P    168
-0.017710773161611,0.389126729868988,0.389126729868988,1.,1.,1.,     103P    169
1.,-0.223352110258318,7.69201883844797,0.465812484847005,            103P    170
-0.223352110258318,7.69201883844797,4.534187515153,                  103P    171
2.65342346208107,10.5687944107874,0.465812484847005,                 103P    172
2.65342346208107,10.5687944107874,4.534187515153,                    103P    173
-0.2034187515153,0.2034187515153,-0.017710773161611,                 103P    174
0.389126729868988;                                                   103P    175
128,1,8,1,2,0,1,0,0,1,-2.05703511478462,-2.05703511478462,           105P    176
2.05703511478462,2.05703511478462,-3.14159265358979,                 105P    177
-3.14159265358979,-3.14159265358979,-1.5707963267949,                105P    178
-1.5707963267949,0.,0.,1.5707963267949,1.5707963267949,              105P    179
3.14159265358979,3.14159265358979,3.14159265358979,1.,1.,            105P    180
0.707106781186548,0.707106781186548,1.,1.,0.707106781186548,         105P    181
0.707106781186548,1.,1.,0.707106781186548,0.707106781186548,1.,      105P    182
1.,0.707106781186548,0.707106781186548,1.,1.,7.93059596157586,       105P    183
5.04115375523994,2.5,2.52818938405475,10.443560332761,2.5,           105P    184
7.93059596157586,5.04115375523993,0.642920216463119,                 105P    185
2.52818938405475,10.443560332761,0.642920216463118,                  105P    186
6.61744225343249,3.72800004709656,0.642920216463119,                 105P    187
1.21503567591138,9.13040662461767,0.642920216463118,                 105P    188
5.30428854528911,2.41484633895319,0.642920216463119,                 105P    189
-0.0981180322319955,7.81725291647429,0.642920216463118,              105P    190
5.30428854528911,2.41484633895319,2.5,-0.0981180322319958,           105P    191
7.81725291647429,2.5,5.30428854528911,2.41484633895319,              105P    192
4.35707978353688,-0.0981180322319955,7.81725291647429,               105P    193
4.35707978353688,6.61744225343249,3.72800004709656,                  105P    194
4.35707978353688,1.21503567591138,9.13040662461767,                  105P    195
4.35707978353688,7.93059596157586,5.04115375523993,                  105P    196
4.35707978353688,2.52818938405475,10.443560332761,                   105P    197
4.35707978353688,7.93059596157586,5.04115375523994,2.5,              105P    198
2.52818938405475,10.443560332761,2.5,-2.05703511478462,              105P    199
2.05703511478462,-3.14159265358979,3.14159265358979;                 105P    200
128,1,1,1,1,0,0,1,0,0,-0.203418751515299,-0.203418751515299,         107P    201
0.203418751515299,0.203418751515299,-0.001,-0.001,                   107P    202
0.405837503030599,0.405837503030599,1.,1.,1.,1.,                     107P    203
5.17905446726279,2.28961226092686,4.534187515153,                    107P    204
5.17905446726279,2.28961226092686,0.465812484847005,                 107P    205
8.05583003960218,5.16638783326626,4.534187515153,                    107P    206
8.05583003960218,5.16638783326626,0.465812484847005,                 107P    207
-0.203418751515299,0.203418751515299,-0.001,0.405837503030599;       107P    208
128,1,1,1,1,0,0,1,0,0,-0.251,-0.251,0.251,0.251,-0.251,-0.251,       109P    209
0.251,0.251,1.,1.,1.,1.,-2.51,5.,-2.51,-2.51,5.,2.51,2.51,5.,        109P    210
-2.51,2.51,5.,2.51,-0.251,0.251,-0.251,0.251;                        109P    211
128,1,1,1,1,0,0,1,0,0,-0.001,-0.001,0.501,0.501,-0.001,-0.001,       111P    212
0.501,0.501,1.,1.,1.,1.,2.5,-0.01,2.51,2.5,-0.01,-2.51,2.5,5.01,     111P    213
2.51,2.5,5.01,-2.51,-0.001,0.501,-0.001,0.501;                       111P    214
128,1,1,1,1,0,0,1,0,0,-0.001,-0.001,0.501,0.501,-0.001,-0.001,       113P    215
0.501,0.501,1.,1.,1.,1.,-2.51,-0.01,2.5,2.51,-0.01,2.5,-2.51,        113P    216
5.01,2.5,2.51,5.01,2.5,-0.001,0.501,-0.001,0.501;                    113P    217
128,1,1,1,1,0,0,1,0,0,-0.001,-0.001,0.501,0.501,-0.001,-0.001,       115P    218
0.501,0.501,1.,1.,1.,1.,-2.5,-0.01,-2.51,-2.5,-0.01,2.51,-2.5,       115P    219
5.01,-2.51,-2.5,5.01,2.51,-0.001,0.501,-0.001,0.501;                 115P    220
128,1,1,1,1,0,0,1,0,0,-0.001,-0.001,0.501,0.501,-0.001,-0.001,       117P    221
0.501,0.501,1.,1.,1.,1.,2.51,-0.01,-2.5,-2.51,-0.01,-2.5,2.51,       117P    222
5.01,-2.5,-2.51,5.01,-2.5,-0.001,0.501,-0.001,0.501;                 117P    223
128,1,1,1,1,0,0,1,0,0,-0.251,-0.251,0.251,0.251,-0.251,-0.251,       119P    224
0.251,0.251,1.,1.,1.,1.,-2.51,0.,2.51,-2.51,0.,-2.51,2.51,0.,        119P    225
2.51,2.51,0.,-2.51,-0.251,0.251,-0.251,0.251;                        119P    226
502,18,-0.216281042446452,7.69908990625984,2.5,2.64635239426921,     121P    227
10.5617233429755,2.5,8.04875897179032,5.15931676545439,2.5,          121P    228
5.18612553507466,2.29668332873873,2.5,2.5,5.,2.27849570279285,       121P    229
2.5,4.98280886381339,2.5,2.48280886381339,5.,2.5,                    121P    230
-0.0981180322319997,7.81725291647429,2.5,2.52818938405475,           121P    231
10.443560332761,2.5,7.93059596157586,5.04115375523994,2.5,           121P    232
5.30428854528912,2.41484633895319,2.5,2.5,5.,-2.5,-2.5,5.,-2.5,      121P    233
-2.5,5.,2.5,2.5,0.,2.5,2.5,0.,-2.5,-2.5,0.,2.5,-2.5,0.,-2.5;         121P    234
504,25,51,121,1,121,2,53,121,2,121,1,55,121,2,121,3,57,121,3,        123P    235
121,4,59,121,4,121,3,61,121,5,121,6,63,121,7,121,5,65,121,6,121,     123P    236
7,67,121,8,121,9,69,121,9,121,8,71,121,9,121,10,73,121,11,121,       123P    237
10,75,121,10,121,11,77,121,5,121,12,79,121,12,121,13,81,121,13,      123P    238
121,14,83,121,14,121,7,85,121,15,121,6,87,121,16,121,15,89,121,      123P    239
16,121,12,91,121,17,121,14,93,121,15,121,17,95,121,17,121,18,97,     123P    240
121,18,121,13,99,121,18,121,16;                                      123P    241
406,1,6HSolid5;                                                      125P    242
314,95.6862745098039,95.6862745098039,95.6862745098039,;             127P    243
S      1G      3D    128P    243                                        T      1
