                                                                        S      1
,,,8HCilindro,22HAutodesk Inventor 2017,7Hunknown,32,38,7,99,15,,1.,2,2HG      1
MM,1,0.08,15H20170710.084805,0.01,10000.,6HHideak,,11,0,15H16010101.0000G      2
00;                                                                     G      3
     186       1                                                00000000D      1
     186             -35       1       0                               0D      2
     514       2                                                00010000D      3
     514                       1       1                               0D      4
     510       3                                                00010000D      5
     510             -35       1       1                               0D      6
     510       4                                                00010000D      7
     510             -35       1       1                               0D      8
     510       5                                                00010000D      9
     510             -35       1       1                               0D     10
     508       6                                                00010000D     11
     508                       1       1                               0D     12
     508       7                                                00010000D     13
     508                       1       1                               0D     14
     508       8                                                00010000D     15
     508                       1       1                               0D     16
     126       9                                                00010000D     17
     126       0               9       0                               0D     18
     126      18                                                00010000D     19
     126       0               2       0                               0D     20
     126      20                                                00010000D     21
     126       0               9       0                               0D     22
     128      29                                                00010000D     23
     128       0     -35      11       0                               0D     24
     128      40                                                00010000D     25
     128       0     -35       3       0                               0D     26
     128      43                                                00010000D     27
     128       0     -35       3       0                               0D     28
     502      46                                                00010000D     29
     502                       1       1                               0D     30
     504      47                                                00010001D     31
     504                       1       1                               0D     32
     406      48                                                00000000D     33
     406                       1      15                               0D     34
     314      49                                                00000200D     35
     314                       1       0                               0D     36
186,3,1,0,0,1,33;                                                      1P      1
514,3,5,1,7,1,9,1;                                                     3P      2
510,23,1,1,11;                                                         5P      3
510,25,1,1,13;                                                         7P      4
510,27,1,1,15;                                                         9P      5
508,4,0,31,1,0,0,0,31,2,1,0,0,31,3,0,0,0,31,2,0,0;                    11P      6
508,1,0,31,3,1,0;                                                     13P      7
508,1,0,31,1,1,0;                                                     15P      8
126,8,2,0,1,0,0,-3.14159265358979,-3.14159265358979,                  17P      9
-3.14159265358979,-1.5707963267949,-1.5707963267949,0.,0.,            17P     10
1.5707963267949,1.5707963267949,3.14159265358979,                     17P     11
3.14159265358979,3.14159265358979,1.,0.707106781186548,1.,            17P     12
0.707106781186548,1.,0.707106781186548,1.,0.707106781186548,1.,       17P     13
5.,6.12323399573677D-16,10.,5.,5.,10.,-3.06161699786838D-16,5.,       17P     14
10.,-5.,5.,10.,-5.,0.,10.,-5.,-5.,10.,-3.06161699786838D-16,-5.,      17P     15
10.,5.,-5.,10.,5.,-6.12323399573677D-16,10.,-3.14159265358979,        17P     16
3.14159265358979,0.,0.,0.;                                            17P     17
126,1,1,0,0,1,0,-2.,-2.,0.,0.,1.,1.,5.,0.,10.,5.,0.,0.,-2.,0.,        19P     18
0.,0.,0.;                                                             19P     19
126,8,2,0,1,0,0,-3.14159265358979,-3.14159265358979,                  21P     20
-3.14159265358979,-1.5707963267949,-1.5707963267949,0.,0.,            21P     21
1.5707963267949,1.5707963267949,3.14159265358979,                     21P     22
3.14159265358979,3.14159265358979,1.,0.707106781186548,1.,            21P     23
0.707106781186548,1.,0.707106781186548,1.,0.707106781186548,1.,       21P     24
5.,-6.12323399573677D-16,0.,5.,-5.,0.,-3.06161699786838D-16,-5.,      21P     25
0.,-5.,-5.,0.,-5.,0.,0.,-5.,5.,0.,-3.06161699786838D-16,5.,0.,        21P     26
5.,5.,0.,5.,6.12323399573677D-16,0.,-3.14159265358979,                21P     27
3.14159265358979,0.,0.,0.;                                            21P     28
128,1,8,1,2,0,1,0,0,1,0.,0.,2.,2.,-3.14159265358979,                  23P     29
-3.14159265358979,-3.14159265358979,-1.5707963267949,                 23P     30
-1.5707963267949,0.,0.,1.5707963267949,1.5707963267949,               23P     31
3.14159265358979,3.14159265358979,3.14159265358979,1.,1.,             23P     32
0.707106781186548,0.707106781186548,1.,1.,0.707106781186548,          23P     33
0.707106781186548,1.,1.,0.707106781186548,0.707106781186548,1.,       23P     34
1.,0.707106781186548,0.707106781186548,1.,1.,5.,0.,10.,5.,0.,0.,      23P     35
5.,5.,10.,5.,5.,0.,0.,5.,10.,0.,5.,0.,-5.,5.,10.,-5.,5.,0.,-5.,       23P     36
0.,10.,-5.,0.,0.,-5.,-5.,10.,-5.,-5.,0.,0.,-5.,10.,0.,-5.,0.,5.,      23P     37
-5.,10.,5.,-5.,0.,5.,0.,10.,5.,0.,0.,0.,2.,-3.14159265358979,         23P     38
3.14159265358979;                                                     23P     39
128,1,1,1,1,0,0,1,0,0,-0.501,-0.501,0.501,0.501,-0.501,-0.501,        25P     40
0.501,0.501,1.,1.,1.,1.,5.01,-5.01,0.,-5.01,-5.01,0.,5.01,5.01,       25P     41
0.,-5.01,5.01,0.,-0.501,0.501,-0.501,0.501;                           25P     42
128,1,1,1,1,0,0,1,0,0,-0.501,-0.501,0.501,0.501,-0.501,-0.501,        27P     43
0.501,0.501,1.,1.,1.,1.,-5.01,-5.01,10.,5.01,-5.01,10.,-5.01,         27P     44
5.01,10.,5.01,5.01,10.,-0.501,0.501,-0.501,0.501;                     27P     45
502,2,5.,6.12323399573677D-16,10.,5.,6.12323399573677D-16,0.;         29P     46
504,3,17,29,1,29,1,19,29,1,29,2,21,29,2,29,2;                         31P     47
406,1,8HSólido1;                                                     33P     48
314,74.9019607843137,74.9019607843137,74.9019607843137,;              35P     49
S      1G      3D     36P     49                                        T      1
