                                                                        S      1
,,,10HCubo Duplo,22HAutodesk Inventor 2017,7Hunknown,32,38,7,99,15,,1., G      1
2,2HMM,1,0.08,15H20170216.202158,0.01,10000.,5Hwilli,,11,0,15H16010101.0G      2
00000;                                                                  G      3
     186       1                                                00000000D      1
     186            -127       1       0                               0D      2
     514       2                                                00010000D      3
     514                       1       1                               0D      4
     510       3                                                00010000D      5
     510            -127       1       1                               0D      6
     510       4                                                00010000D      7
     510            -127       1       1                               0D      8
     510       5                                                00010000D      9
     510            -127       1       1                               0D     10
     510       6                                                00010000D     11
     510            -127       1       1                               0D     12
     510       7                                                00010000D     13
     510            -127       1       1                               0D     14
     510       8                                                00010000D     15
     510            -127       1       1                               0D     16
     510       9                                                00010000D     17
     510            -127       1       1                               0D     18
     510      10                                                00010000D     19
     510            -127       1       1                               0D     20
     510      11                                                00010000D     21
     510            -127       1       1                               0D     22
     510      12                                                00010000D     23
     510            -127       1       1                               0D     24
     510      13                                                00010000D     25
     510            -127       1       1                               0D     26
     508      14                                                00010000D     27
     508                       1       1                               0D     28
     508      15                                                00010000D     29
     508                       1       1                               0D     30
     508      16                                                00010000D     31
     508                       1       1                               0D     32
     508      17                                                00010000D     33
     508                       1       1                               0D     34
     508      18                                                00010000D     35
     508                       1       1                               0D     36
     508      19                                                00010000D     37
     508                       1       1                               0D     38
     508      20                                                00010000D     39
     508                       1       1                               0D     40
     508      21                                                00010000D     41
     508                       1       1                               0D     42
     508      22                                                00010000D     43
     508                       1       1                               0D     44
     508      23                                                00010000D     45
     508                       1       1                               0D     46
     508      24                                                00010000D     47
     508                       1       1                               0D     48
     508      25                                                00010000D     49
     508                       1       1                               0D     50
     126      26                                                00010000D     51
     126       0               2       0                               0D     52
     126      28                                                00010000D     53
     126       0               2       0                               0D     54
     126      30                                                00010000D     55
     126       0               2       0                               0D     56
     126      32                                                00010000D     57
     126       0               2       0                               0D     58
     126      34                                                00010000D     59
     126       0               2       0                               0D     60
     126      36                                                00010000D     61
     126       0               2       0                               0D     62
     126      38                                                00010000D     63
     126       0               2       0                               0D     64
     126      40                                                00010000D     65
     126       0               2       0                               0D     66
     126      42                                                00010000D     67
     126       0               2       0                               0D     68
     126      44                                                00010000D     69
     126       0               2       0                               0D     70
     126      46                                                00010000D     71
     126       0               2       0                               0D     72
     126      48                                                00010000D     73
     126       0               2       0                               0D     74
     126      50                                                00010000D     75
     126       0               2       0                               0D     76
     126      52                                                00010000D     77
     126       0               2       0                               0D     78
     126      54                                                00010000D     79
     126       0               2       0                               0D     80
     126      56                                                00010000D     81
     126       0               2       0                               0D     82
     126      58                                                00010000D     83
     126       0               2       0                               0D     84
     126      60                                                00010000D     85
     126       0               2       0                               0D     86
     126      62                                                00010000D     87
     126       0               2       0                               0D     88
     126      64                                                00010000D     89
     126       0               2       0                               0D     90
     126      66                                                00010000D     91
     126       0               2       0                               0D     92
     126      68                                                00010000D     93
     126       0               2       0                               0D     94
     126      70                                                00010000D     95
     126       0               2       0                               0D     96
     126      72                                                00010000D     97
     126       0               2       0                               0D     98
     128      74                                                00010000D     99
     128       0    -127       3       0                               0D    100
     128      77                                                00010000D    101
     128       0    -127       3       0                               0D    102
     128      80                                                00010000D    103
     128       0    -127       3       0                               0D    104
     128      83                                                00010000D    105
     128       0    -127       3       0                               0D    106
     128      86                                                00010000D    107
     128       0    -127       3       0                               0D    108
     128      89                                                00010000D    109
     128       0    -127       3       0                               0D    110
     128      92                                                00010000D    111
     128       0    -127       3       0                               0D    112
     128      95                                                00010000D    113
     128       0    -127       3       0                               0D    114
     128      98                                                00010000D    115
     128       0    -127       3       0                               0D    116
     128     101                                                00010000D    117
     128       0    -127       3       0                               0D    118
     128     104                                                00010000D    119
     128       0    -127       3       0                               0D    120
     502     107                                                00010000D    121
     502                       4       1                               0D    122
     504     111                                                00010001D    123
     504                       7       1                               0D    124
     406     118                                                00000000D    125
     406                       1      15                               0D    126
     314     119                                                00000200D    127
     314                       1       0                               0D    128
186,3,1,0,0,1,125;                                                     1P      1
514,11,5,1,7,1,9,1,11,1,13,1,15,1,17,1,19,1,21,1,23,1,25,1;            3P      2
510,99,1,1,27;                                                         5P      3
510,101,1,1,29;                                                        7P      4
510,103,1,1,31;                                                        9P      5
510,105,1,1,33;                                                       11P      6
510,107,1,1,35;                                                       13P      7
510,109,1,1,37;                                                       15P      8
510,111,1,1,39;                                                       17P      9
510,113,1,1,41;                                                       19P     10
510,115,1,1,43;                                                       21P     11
510,117,1,1,45;                                                       23P     12
510,119,2,1,47,49;                                                    25P     13
508,4,0,123,1,0,0,0,123,2,1,0,0,123,3,0,0,0,123,4,0,0;                27P     14
508,4,0,123,5,0,0,0,123,4,1,0,0,123,6,0,0,0,123,7,0,0;                29P     15
508,4,0,123,8,0,0,0,123,7,1,0,0,123,9,0,0,0,123,10,0,0;               31P     16
508,4,0,123,11,0,0,0,123,10,1,0,0,123,12,0,0,0,123,2,0,0;             33P     17
508,4,0,123,12,1,0,0,123,9,1,0,0,123,6,1,0,0,123,3,1,0;               35P     18
508,4,0,123,13,0,0,0,123,14,1,0,0,123,15,0,0,0,123,16,0,0;            37P     19
508,4,0,123,17,0,0,0,123,16,1,0,0,123,18,0,0,0,123,19,0,0;            39P     20
508,4,0,123,20,0,0,0,123,19,1,0,0,123,21,0,0,0,123,22,0,0;            41P     21
508,4,0,123,23,0,0,0,123,22,1,0,0,123,24,0,0,0,123,14,0,0;            43P     22
508,4,0,123,23,1,0,0,123,13,1,0,0,123,17,1,0,0,123,20,1,0;            45P     23
508,4,0,123,24,1,0,0,123,21,1,0,0,123,18,1,0,0,123,15,1,0;            47P     24
508,4,0,123,1,1,0,0,123,5,1,0,0,123,8,1,0,0,123,11,1,0;               49P     25
126,1,1,0,0,1,0,-0.375,-0.375,0.125,0.125,1.,1.,-2.5,10.,2.5,         51P     26
-2.5,10.,-2.5,-0.375,0.125,0.,0.,0.;                                  51P     27
126,1,1,0,0,1,0,0.,0.,0.5,0.5,1.,1.,-2.5,10.,2.5,-2.5,15.,2.5,        53P     28
0.,0.5,0.,0.,0.;                                                      53P     29
126,1,1,0,0,1,0,0.,0.,0.5,0.5,1.,1.,-2.5,15.,-2.5,-2.5,15.,2.5,       55P     30
0.,0.5,0.,0.,0.;                                                      55P     31
126,1,1,0,0,1,0,0.,0.,0.5,0.5,1.,1.,-2.5,10.,-2.5,-2.5,15.,-2.5,      57P     32
0.,0.5,0.,0.,0.;                                                      57P     33
126,1,1,0,0,1,0,-0.375,-0.375,0.125,0.125,1.,1.,-2.5,10.,-2.5,        59P     34
2.5,10.,-2.5,-0.375,0.125,0.,0.,0.;                                   59P     35
126,1,1,0,0,1,0,0.,0.,0.5,0.5,1.,1.,2.5,15.,-2.5,-2.5,15.,-2.5,       61P     36
0.,0.5,0.,0.,0.;                                                      61P     37
126,1,1,0,0,1,0,0.,0.,0.5,0.5,1.,1.,2.5,10.,-2.5,2.5,15.,-2.5,        63P     38
0.,0.5,0.,0.,0.;                                                      63P     39
126,1,1,0,0,1,0,-0.375,-0.375,0.125,0.125,1.,1.,2.5,10.,-2.5,         65P     40
2.5,10.,2.5,-0.375,0.125,0.,0.,0.;                                    65P     41
126,1,1,0,0,1,0,0.,0.,0.5,0.5,1.,1.,2.5,15.,2.5,2.5,15.,-2.5,0.,      67P     42
0.5,0.,0.,0.;                                                         67P     43
126,1,1,0,0,1,0,0.,0.,0.5,0.5,1.,1.,2.5,10.,2.5,2.5,15.,2.5,0.,       69P     44
0.5,0.,0.,0.;                                                         69P     45
126,1,1,0,0,1,0,-0.375,-0.375,0.125,0.125,1.,1.,2.5,10.,2.5,          71P     46
-2.5,10.,2.5,-0.375,0.125,0.,0.,0.;                                   71P     47
126,1,1,0,0,1,0,0.,0.,0.5,0.5,1.,1.,-2.5,15.,2.5,2.5,15.,2.5,0.,      73P     48
0.5,0.,0.,0.;                                                         73P     49
126,1,1,0,0,1,0,0.,0.,1.,1.,1.,1.,-5.,0.,5.,-5.,0.,-5.,0.,1.,0.,      75P     50
0.,0.;                                                                75P     51
126,1,1,0,0,1,0,0.,0.,1.,1.,1.,1.,-5.,0.,5.,-5.,10.,5.,0.,1.,0.,      77P     52
0.,0.;                                                                77P     53
126,1,1,0,0,1,0,-1.,-1.,0.,0.,1.,1.,-5.,10.,-5.,-5.,10.,5.,-1.,       79P     54
0.,0.,0.,0.;                                                          79P     55
126,1,1,0,0,1,0,0.,0.,1.,1.,1.,1.,-5.,0.,-5.,-5.,10.,-5.,0.,1.,       81P     56
0.,0.,0.;                                                             81P     57
126,1,1,0,0,1,0,0.,0.,1.,1.,1.,1.,-5.,0.,-5.,5.,0.,-5.,0.,1.,0.,      83P     58
0.,0.;                                                                83P     59
126,1,1,0,0,1,0,-1.,-1.,0.,0.,1.,1.,5.,10.,-5.,-5.,10.,-5.,-1.,       85P     60
0.,0.,0.,0.;                                                          85P     61
126,1,1,0,0,1,0,0.,0.,1.,1.,1.,1.,5.,0.,-5.,5.,10.,-5.,0.,1.,0.,      87P     62
0.,0.;                                                                87P     63
126,1,1,0,0,1,0,0.,0.,1.,1.,1.,1.,5.,0.,-5.,5.,0.,5.,0.,1.,0.,        89P     64
0.,0.;                                                                89P     65
126,1,1,0,0,1,0,-1.,-1.,0.,0.,1.,1.,5.,10.,5.,5.,10.,-5.,-1.,0.,      91P     66
0.,0.,0.;                                                             91P     67
126,1,1,0,0,1,0,0.,0.,1.,1.,1.,1.,5.,0.,5.,5.,10.,5.,0.,1.,0.,        93P     68
0.,0.;                                                                93P     69
126,1,1,0,0,1,0,0.,0.,1.,1.,1.,1.,5.,0.,5.,-5.,0.,5.,0.,1.,0.,        95P     70
0.,0.;                                                                95P     71
126,1,1,0,0,1,0,-1.,-1.,0.,0.,1.,1.,-5.,10.,5.,5.,10.,5.,-1.,0.,      97P     72
0.,0.,0.;                                                             97P     73
128,1,1,1,1,0,0,1,0,0,-0.001,-0.001,0.501,0.501,-0.001,-0.001,        99P     74
0.501,0.501,1.,1.,1.,1.,-2.5,9.99,-2.51,-2.5,9.99,2.51,-2.5,          99P     75
15.01,-2.51,-2.5,15.01,2.51,-0.001,0.501,-0.001,0.501;                99P     76
128,1,1,1,1,0,0,1,0,0,-0.001,-0.001,0.501,0.501,-0.001,-0.001,       101P     77
0.501,0.501,1.,1.,1.,1.,2.51,9.99,-2.5,-2.51,9.99,-2.5,2.51,         101P     78
15.01,-2.5,-2.51,15.01,-2.5,-0.001,0.501,-0.001,0.501;               101P     79
128,1,1,1,1,0,0,1,0,0,-0.001,-0.001,0.501,0.501,-0.001,-0.001,       103P     80
0.501,0.501,1.,1.,1.,1.,2.5,9.99,2.51,2.5,9.99,-2.51,2.5,15.01,      103P     81
2.51,2.5,15.01,-2.51,-0.001,0.501,-0.001,0.501;                      103P     82
128,1,1,1,1,0,0,1,0,0,-0.001,-0.001,0.501,0.501,-0.001,-0.001,       105P     83
0.501,0.501,1.,1.,1.,1.,-2.51,9.99,2.5,2.51,9.99,2.5,-2.51,          105P     84
15.01,2.5,2.51,15.01,2.5,-0.001,0.501,-0.001,0.501;                  105P     85
128,1,1,1,1,0,0,1,0,0,-0.251,-0.251,0.251,0.251,-0.251,-0.251,       107P     86
0.251,0.251,1.,1.,1.,1.,-2.51,15.,-2.51,-2.51,15.,2.51,2.51,15.,     107P     87
-2.51,2.51,15.,2.51,-0.251,0.251,-0.251,0.251;                       107P     88
128,1,1,1,1,0,0,1,0,0,-0.001,-0.001,1.001,1.001,-0.001,-0.001,       109P     89
1.001,1.001,1.,1.,1.,1.,-5.,-0.01,-5.01,-5.,-0.01,5.01,-5.,          109P     90
10.01,-5.01,-5.,10.01,5.01,-0.001,1.001,-0.001,1.001;                109P     91
128,1,1,1,1,0,0,1,0,0,-0.001,-0.001,1.001,1.001,-0.001,-0.001,       111P     92
1.001,1.001,1.,1.,1.,1.,5.01,-0.01,-5.,-5.01,-0.01,-5.,5.01,         111P     93
10.01,-5.,-5.01,10.01,-5.,-0.001,1.001,-0.001,1.001;                 111P     94
128,1,1,1,1,0,0,1,0,0,-0.001,-0.001,1.001,1.001,-0.001,-0.001,       113P     95
1.001,1.001,1.,1.,1.,1.,5.,-0.01,5.01,5.,-0.01,-5.01,5.,10.01,       113P     96
5.01,5.,10.01,-5.01,-0.001,1.001,-0.001,1.001;                       113P     97
128,1,1,1,1,0,0,1,0,0,-0.001,-0.001,1.001,1.001,-0.001,-0.001,       115P     98
1.001,1.001,1.,1.,1.,1.,-5.01,-0.01,5.,5.01,-0.01,5.,-5.01,          115P     99
10.01,5.,5.01,10.01,5.,-0.001,1.001,-0.001,1.001;                    115P    100
128,1,1,1,1,0,0,1,0,0,-0.501,-0.501,0.501,0.501,-0.501,-0.501,       117P    101
0.501,0.501,1.,1.,1.,1.,-5.01,0.,5.01,-5.01,0.,-5.01,5.01,0.,        117P    102
5.01,5.01,0.,-5.01,-0.501,0.501,-0.501,0.501;                        117P    103
128,1,1,1,1,0,0,1,0,0,-0.501,-0.501,0.501,0.501,-0.501,-0.501,       119P    104
0.501,0.501,1.,1.,1.,1.,-5.01,10.,-5.01,-5.01,10.,5.01,5.01,10.,     119P    105
-5.01,5.01,10.,5.01,-0.501,0.501,-0.501,0.501;                       119P    106
502,16,-2.5,10.,2.5,-2.5,10.,-2.5,-2.5,15.,2.5,-2.5,15.,-2.5,        121P    107
2.5,10.,-2.5,2.5,15.,-2.5,2.5,10.,2.5,2.5,15.,2.5,-5.,0.,5.,-5.,     121P    108
0.,-5.,-5.,10.,5.,-5.,10.,-5.,5.,0.,-5.,5.,10.,-5.,5.,0.,5.,5.,      121P    109
10.,5.;                                                              121P    110
504,24,51,121,1,121,2,53,121,1,121,3,55,121,4,121,3,57,121,2,        123P    111
121,4,59,121,2,121,5,61,121,6,121,4,63,121,5,121,6,65,121,5,121,     123P    112
7,67,121,8,121,6,69,121,7,121,8,71,121,7,121,1,73,121,3,121,8,       123P    113
75,121,9,121,10,77,121,9,121,11,79,121,12,121,11,81,121,10,121,      123P    114
12,83,121,10,121,13,85,121,14,121,12,87,121,13,121,14,89,121,13,     123P    115
121,15,91,121,16,121,14,93,121,15,121,16,95,121,15,121,9,97,121,     123P    116
11,121,16;                                                           123P    117
406,1,8HSólido1;                                                    125P    118
314,74.9019607843137,74.9019607843137,74.9019607843137,;             127P    119
S      1G      3D    128P    119                                        T      1
