                                                                        S      1
,,,8HMeia-Lua,22HAutodesk Inventor 2017,7Hunknown,32,38,7,99,15,,1.,2,2HG      1
MM,1,0.08,15H20170310.003124,0.01,10000.,5Hwilli,,11,0,15H16010101.00000G      2
0;                                                                      G      3
     186       1                                                00000000D      1
     186             -47       1       0                               0D      2
     514       2                                                00010000D      3
     514                       1       1                               0D      4
     510       3                                                00010000D      5
     510             -47       1       1                               0D      6
     510       4                                                00010000D      7
     510             -47       1       1                               0D      8
     510       5                                                00010000D      9
     510             -47       1       1                               0D     10
     510       6                                                00010000D     11
     510             -47       1       1                               0D     12
     508       7                                                00010000D     13
     508                       1       1                               0D     14
     508       8                                                00010000D     15
     508                       1       1                               0D     16
     508       9                                                00010000D     17
     508                       1       1                               0D     18
     508      10                                                00010000D     19
     508                       1       1                               0D     20
     126      11                                                00010000D     21
     126       0               5       0                               0D     22
     126      16                                                00010000D     23
     126       0               2       0                               0D     24
     126      18                                                00010000D     25
     126       0               5       0                               0D     26
     126      23                                                00010000D     27
     126       0               2       0                               0D     28
     126      25                                                00010000D     29
     126       0               2       0                               0D     30
     126      27                                                00010000D     31
     126       0               2       0                               0D     32
     128      29                                                00010000D     33
     128       0     -47       8       0                               0D     34
     128      37                                                00010000D     35
     128       0     -47       3       0                               0D     36
     128      40                                                00010000D     37
     128       0     -47       5       0                               0D     38
     128      45                                                00010000D     39
     128       0     -47       5       0                               0D     40
     502      50                                                00010000D     41
     502                       1       1                               0D     42
     504      51                                                00010001D     43
     504                       2       1                               0D     44
     406      53                                                00000000D     45
     406                       1      15                               0D     46
     314      54                                                00000200D     47
     314                       1       0                               0D     48
186,3,1,0,0,1,45;                                                      1P      1
514,4,5,1,7,1,9,1,11,1;                                                3P      2
510,33,1,1,13;                                                         5P      3
510,35,1,1,15;                                                         7P      4
510,37,1,1,17;                                                         9P      5
510,39,1,1,19;                                                        11P      6
508,4,0,43,1,1,0,0,43,2,1,0,0,43,3,0,0,0,43,4,0,0;                    13P      7
508,4,0,43,5,1,0,0,43,4,1,0,0,43,6,0,0,0,43,2,0,0;                    15P      8
508,2,0,43,6,1,0,0,43,3,1,0;                                          17P      9
508,2,0,43,5,0,0,0,43,1,0,0;                                          19P     10
126,4,2,0,0,0,0,0.,0.,0.,1.5707963267949,1.5707963267949,             21P     11
3.14159265358979,3.14159265358979,3.14159265358979,1.,                21P     12
0.707106781186548,1.,0.707106781186548,1.,5.,0.,0.,5.,5.,0.,          21P     13
2.86059436305492D-17,5.,0.,-5.,5.,0.,-5.,1.16743491188625D-15,        21P     14
0.,0.,3.14159265358979,0.,0.,0.;                                      21P     15
126,1,1,0,0,1,0,0.,0.,0.5,0.5,1.,1.,-5.,0.,0.,-5.,0.,5.,0.,0.5,       23P     16
0.,0.,0.;                                                             23P     17
126,4,2,0,0,0,0,0.,0.,0.,1.5707963267949,1.5707963267949,             25P     18
3.14159265358979,3.14159265358979,3.14159265358979,1.,                25P     19
0.707106781186548,1.,0.707106781186548,1.,5.,0.,5.,5.,5.,5.,          25P     20
2.86059436305492D-17,5.,5.,-5.,5.,5.,-5.,1.16743491188625D-15,        25P     21
5.,0.,3.14159265358979,0.,0.,0.;                                      25P     22
126,1,1,0,0,1,0,0.,0.,0.5,0.5,1.,1.,5.,0.,0.,5.,0.,5.,0.,0.5,0.,      27P     23
0.,0.;                                                                27P     24
126,1,1,0,0,1,0,0.,0.,1.,1.,1.,1.,-5.,0.,0.,5.,0.,0.,0.,1.,0.,        29P     25
0.,0.;                                                                29P     26
126,1,1,0,0,1,0,0.,0.,1.,1.,1.,1.,-5.,0.,5.,5.,0.,5.,0.,1.,0.,        31P     27
0.,0.;                                                                31P     28
128,1,4,1,2,0,0,0,0,0,0.,0.,1.,1.,0.,0.,0.,1.5707963267949,           33P     29
1.5707963267949,3.14159265358979,3.14159265358979,                    33P     30
3.14159265358979,1.,1.,0.707106781186548,0.707106781186548,1.,        33P     31
1.,0.707106781186548,0.707106781186548,1.,1.,5.,0.,5.,5.,0.,0.,       33P     32
5.,5.,5.,5.,5.,0.,-2.77555756156289D-16,5.,5.,                        33P     33
-2.77555756156289D-16,5.,0.,-5.,5.,5.,-5.,5.,0.,-5.,                  33P     34
5.55111512312578D-16,5.,-5.,5.55111512312578D-16,0.,0.,1.,0.,         33P     35
3.14159265358979;                                                     33P     36
128,1,1,1,1,0,0,1,0,0,-0.001,-0.001,1.001,1.001,-0.001,-0.001,        35P     37
0.501,0.501,1.,1.,1.,1.,-5.01,0.,-0.01,5.01,0.,-0.01,-5.01,0.,        35P     38
5.01,5.01,0.,5.01,-0.001,1.001,-0.001,0.501;                          35P     39
128,1,1,1,1,0,0,1,0,0,-0.501,-0.501,0.501,0.501,                      37P     40
-0.173170049645754,-0.173170049645754,0.328829950354246,              37P     41
0.328829950354246,1.,1.,1.,1.,-5.01,-0.01,5.,5.01,-0.01,5.,           37P     42
-5.01,5.01,5.,5.01,5.01,5.,-0.501,0.501,-0.173170049645754,           37P     43
0.328829950354246;                                                    37P     44
128,1,1,1,1,0,0,1,0,0,-0.501,-0.501,0.501,0.501,                      39P     45
-0.173170049645754,-0.173170049645754,0.328829950354246,              39P     46
0.328829950354246,1.,1.,1.,1.,5.01,-0.01,0.,-5.01,-0.01,0.,5.01,      39P     47
5.01,0.,-5.01,5.01,0.,-0.501,0.501,-0.173170049645754,                39P     48
0.328829950354246;                                                    39P     49
502,4,5.,0.,0.,-5.,0.,0.,-5.,0.,5.,5.,0.,5.;                          41P     50
504,6,21,41,1,41,2,23,41,2,41,3,25,41,4,41,3,27,41,1,41,4,29,41,      43P     51
2,41,1,31,41,3,41,4;                                                  43P     52
406,1,8HSólido1;                                                     45P     53
314,74.9019607843137,74.9019607843137,74.9019607843137,;              47P     54
S      1G      3D     48P     54                                        T      1
