                                                                        S      1
,,,6HPrisma,22HAutodesk Inventor 2017,7Hunknown,32,38,7,99,15,,1.,2,2HMMG      1
,1,0.08,15H20170310.003447,0.01,10000.,5Hwilli,,11,0,15H16010101.000000;G      2
     186       1                                                00000000D      1
     186             -59       1       0                               0D      2
     514       2                                                00010000D      3
     514                       1       1                               0D      4
     510       3                                                00010000D      5
     510             -59       1       1                               0D      6
     510       4                                                00010000D      7
     510             -59       1       1                               0D      8
     510       5                                                00010000D      9
     510             -59       1       1                               0D     10
     510       6                                                00010000D     11
     510             -59       1       1                               0D     12
     510       7                                                00010000D     13
     510             -59       1       1                               0D     14
     508       8                                                00010000D     15
     508                       1       1                               0D     16
     508       9                                                00010000D     17
     508                       1       1                               0D     18
     508      10                                                00010000D     19
     508                       1       1                               0D     20
     508      11                                                00010000D     21
     508                       1       1                               0D     22
     508      12                                                00010000D     23
     508                       1       1                               0D     24
     126      13                                                00010000D     25
     126       0               2       0                               0D     26
     126      15                                                00010000D     27
     126       0               2       0                               0D     28
     126      17                                                00010000D     29
     126       0               2       0                               0D     30
     126      19                                                00010000D     31
     126       0               3       0                               0D     32
     126      22                                                00010000D     33
     126       0               2       0                               0D     34
     126      24                                                00010000D     35
     126       0               2       0                               0D     36
     126      26                                                00010000D     37
     126       0               2       0                               0D     38
     126      28                                                00010000D     39
     126       0               2       0                               0D     40
     126      30                                                00010000D     41
     126       0               2       0                               0D     42
     128      32                                                00010000D     43
     128       0     -59       5       0                               0D     44
     128      37                                                00010000D     45
     128       0     -59       5       0                               0D     46
     128      42                                                00010000D     47
     128       0     -59       3       0                               0D     48
     128      45                                                00010000D     49
     128       0     -59       5       0                               0D     50
     128      50                                                00010000D     51
     128       0     -59       5       0                               0D     52
     502      55                                                00010000D     53
     502                       3       1                               0D     54
     504      58                                                00010001D     55
     504                       2       1                               0D     56
     406      60                                                00000000D     57
     406                       1      15                               0D     58
     314      61                                                00000200D     59
     314                       1       0                               0D     60
186,3,1,0,0,1,57;                                                      1P      1
514,5,5,1,7,1,9,1,11,1,13,1;                                           3P      2
510,43,1,1,15;                                                         5P      3
510,45,1,1,17;                                                         7P      4
510,47,1,1,19;                                                         9P      5
510,49,1,1,21;                                                        11P      6
510,51,1,1,23;                                                        13P      7
508,4,0,55,1,1,0,0,55,2,1,0,0,55,3,0,0,0,55,4,0,0;                    15P      8
508,4,0,55,5,1,0,0,55,4,1,0,0,55,6,0,0,0,55,7,0,0;                    17P      9
508,4,0,55,8,1,0,0,55,7,1,0,0,55,9,0,0,0,55,2,0,0;                    19P     10
508,3,0,55,9,1,0,0,55,6,1,0,0,55,3,1,0;                               21P     11
508,3,0,55,8,0,0,0,55,1,0,0,0,55,5,0,0;                               23P     12
126,1,1,0,0,1,0,0.,0.,0.6,0.6,1.,1.,-1.11022302462516D-15,            25P     13
5.19615242270663,0.,-3.,0.,0.,0.,0.6,0.,0.,0.;                        25P     14
126,1,1,0,0,1,0,0.,0.,0.6,0.6,1.,1.,-3.,0.,0.,-3.,0.,6.,0.,0.6,       27P     15
0.,0.,0.;                                                             27P     16
126,1,1,0,0,1,0,0.,0.,0.6,0.6,1.,1.,-1.11022302462516D-15,            29P     17
5.19615242270663,6.,-3.,0.,6.,0.,0.6,0.,0.,0.;                        29P     18
126,1,1,0,0,1,0,0.,0.,0.6,0.6,1.,1.,-1.11022302462516D-15,            31P     19
5.19615242270663,0.,-1.11022302462516D-15,5.19615242270663,6.,        31P     20
0.,0.6,0.,0.,0.;                                                      31P     21
126,1,1,0,0,1,0,0.,0.,0.6,0.6,1.,1.,3.,0.,0.,                         33P     22
-5.55111512312578D-16,5.19615242270663,0.,0.,0.6,0.,0.,0.;            33P     23
126,1,1,0,0,1,0,0.,0.,0.6,0.6,1.,1.,3.,0.,6.,                         35P     24
-5.55111512312578D-16,5.19615242270663,6.,0.,0.6,0.,0.,0.;            35P     25
126,1,1,0,0,1,0,0.,0.,0.6,0.6,1.,1.,3.,0.,0.,3.,0.,6.,0.,0.6,0.,      37P     26
0.,0.;                                                                37P     27
126,1,1,0,0,1,0,0.,0.,0.6,0.6,1.,1.,-3.,0.,0.,3.,0.,0.,0.,0.6,        39P     28
0.,0.,0.;                                                             39P     29
126,1,1,0,0,1,0,0.,0.,0.6,0.6,1.,1.,-3.,0.,6.,3.,0.,6.,0.,0.6,        41P     30
0.,0.,0.;                                                             41P     31
128,1,1,1,1,0,0,1,0,0,-0.001,-0.001,0.601,0.601,-0.001,-0.001,        43P     32
0.601,0.601,1.,1.,1.,1.,0.00499999999999889,5.20481267674448,         43P     33
-0.01,-3.005,-0.00866025403784443,-0.01,0.00499999999999889,          43P     34
5.20481267674448,6.01,-3.005,-0.00866025403784443,6.01,-0.001,        43P     35
0.601,-0.001,0.601;                                                   43P     36
128,1,1,1,1,0,0,1,0,0,-0.001,-0.001,0.601,0.601,-0.001,-0.001,        45P     37
0.601,0.601,1.,1.,1.,1.,3.005,-0.00866025403784439,-0.01,             45P     38
-0.00500000000000111,5.20481267674448,-0.01,3.005,                    45P     39
-0.00866025403784439,6.01,-0.00500000000000111,5.20481267674448,      45P     40
6.01,-0.001,0.601,-0.001,0.601;                                       45P     41
128,1,1,1,1,0,0,1,0,0,-0.001,-0.001,0.601,0.601,-0.001,-0.001,        47P     42
0.601,0.601,1.,1.,1.,1.,-3.01,0.,-0.01,3.01,0.,-0.01,-3.01,0.,        47P     43
6.01,3.01,0.,6.01,-0.001,0.601,-0.001,0.601;                          47P     44
128,1,1,1,1,0,0,1,0,0,-0.301,-0.301,0.301,0.301,                      49P     45
-0.174205080756888,-0.174205080756888,0.347410161513776,              49P     46
0.347410161513776,1.,1.,1.,1.,-3.01,-0.01,6.,3.01,-0.01,6.,           49P     47
-3.01,5.20615242270663,6.,3.01,5.20615242270663,6.,-0.301,0.301,      49P     48
-0.174205080756888,0.347410161513776;                                 49P     49
128,1,1,1,1,0,0,1,0,0,-0.301,-0.301,0.301,0.301,                      51P     50
-0.174205080756888,-0.174205080756888,0.347410161513776,              51P     51
0.347410161513776,1.,1.,1.,1.,3.01,-0.01,0.,-3.01,-0.01,0.,3.01,      51P     52
5.20615242270663,0.,-3.01,5.20615242270663,0.,-0.301,0.301,           51P     53
-0.174205080756888,0.347410161513776;                                 51P     54
502,6,-1.11022302462516D-15,5.19615242270663,0.,-3.,0.,0.,-3.,        53P     55
0.,6.,-1.11022302462516D-15,5.19615242270663,6.,3.,0.,0.,3.,0.,       53P     56
6.;                                                                   53P     57
504,9,25,53,1,53,2,27,53,2,53,3,29,53,4,53,3,31,53,1,53,4,33,53,      55P     58
5,53,1,35,53,6,53,4,37,53,5,53,6,39,53,2,53,5,41,53,3,53,6;           55P     59
406,1,8HSólido1;                                                     57P     60
314,74.9019607843137,74.9019607843137,74.9019607843137,;              59P     61
S      1G      2D     60P     61                                        T      1
